<svg xmlns="http://www.w3.org/2000/svg" xml:space="preserve" width="128" height="128" viewBox="0 0 33.867 33.867"><g style="display:inline"><path d="M100.222 243.49c-5.366-.3-10.425-.921-14.806-1.82l-2.231-.456c-1.623-.328-5.488-1.344-7.703-2.024-10.317-3.166-19.875-7.822-28.604-13.934-5.556-3.89-10.156-7.858-15.329-13.222C21.68 201.799 13.741 188.7 9.067 174.94c-1.223-3.6-2.504-8.165-3.059-10.903l-.45-2.209c-.588-2.87-.93-5.13-1.381-9.134-.708-6.28-.708-14.744 0-21.024.451-4.003.793-6.263 1.38-9.134l.451-2.209c.08-.39.285-1.28.456-1.977 2.832-11.496 7.298-21.828 13.679-31.642 6.3-9.691 14.72-18.658 24.2-25.773 8.275-6.212 18.065-11.371 27.94-14.725 3.6-1.223 8.164-2.504 10.902-3.06.39-.078 1.384-.281 2.209-.45 2.87-.588 5.13-.93 9.133-1.38 6.28-.708 14.745-.708 21.025 0 4.003.45 6.263.792 9.133 1.38l2.21.45c1.622.329 5.487 1.344 7.702 2.024C144.91 48.34 154.476 53 163.201 59.11c5.558 3.89 10.086 7.797 15.326 13.224 8.54 8.843 15.791 20.081 20.497 31.768 3.129 7.771 5.18 15.373 6.418 23.782.084.57.271 2.108.46 3.787.708 6.28.708 14.745 0 21.024-.906 8.046-2.318 14.545-4.717 21.725-2.055 6.148-4.987 12.689-8.14 18.158-5.057 8.772-10.58 15.794-18.18 23.12-8.864 8.542-20.076 15.772-31.744 20.47-7.772 3.128-15.373 5.18-23.782 6.418-.57.084-2.108.27-3.787.46-4.21.474-11.166.676-15.33.444m11.207-2.58c2.26-.16 2.873-.214 4.107-.356 7.773-.893 13.884-2.234 21.003-4.61 7.074-2.36 14.126-5.67 20.628-9.683 12.81-7.904 24.047-19.141 31.951-31.951 2.223-3.602 4.852-8.583 6.424-12.17 3.581-8.171 6.069-16.784 7.353-25.455.772-5.216 1.02-8.75 1.02-14.503s-.248-9.286-1.02-14.502c-1.284-8.672-3.772-17.284-7.353-25.455-1.573-3.59-4.206-8.577-6.424-12.17-7.947-12.872-19.267-24.173-32.103-32.05-3.53-2.167-8.517-4.791-12.018-6.325-7.167-3.141-14.987-5.534-22.362-6.844-2.52-.447-4.184-.688-7.074-1.022-5.68-.658-14.02-.703-20.004-.109-10.405 1.034-20.15 3.548-29.867 7.706-3.246 1.39-8.418 4.056-11.713 6.04-13.724 8.258-25.41 19.945-33.67 33.669-1.983 3.295-4.649 8.466-6.038 11.713-2.9 6.776-5.219 14.324-6.433 20.942-.092.502-.208 1.118-.259 1.37a73 73 0 0 0-.342 2.18c-.838 5.743-1.071 8.98-1.071 14.857 0 5.883.232 9.11 1.07 14.858.14.948.293 1.93.343 2.18s.167.867.259 1.37c1.214 6.618 3.533 14.165 6.433 20.942 1.39 3.246 4.055 8.418 6.039 11.713 8.059 13.391 19.555 25.014 32.756 33.115 3.53 2.166 8.517 4.79 12.018 6.325 8.858 3.882 18.53 6.554 27.737 7.665l1.673.203c.724.088 2.326.226 4.665.402 1.938.145 10.021.115 12.272-.045m-6.744-6.038c-.893-.039-1.726-.076-1.851-.084-.383-.023-.295-.384.113-.46.386-.073.617-.294.708-.679.082-.347-.328-2.462-.51-2.626-.045-.042-.952-.105-2.013-.14l-1.93-.063-.33.873c-.584 1.544-.52 2.214.234 2.487.24.087.356.192.356.325 0 .183-.052.193-.685.133a24 24 0 0 0-1.775-.065c-1.026-.001-1.09-.013-1.09-.207 0-.122.097-.242.239-.296.552-.21.951-.902 2.16-3.745l2.12-4.982.927-2.18.659-.03.66-.03.218.79c.24.868.607 2.264 1.169 4.442 1.442 5.59 1.489 5.728 2.062 6.085.179.111.327.282.33.38.001.098-.03.17-.073.16-.041-.01-.806-.05-1.698-.088m-1.674-4.664c0-.164-1.21-4.993-1.308-5.22-.108-.252-.025-.428-1.27 2.688-.902 2.255-.942 2.384-.734 2.412.12.015.88.066 1.69.111a62 62 0 0 1 1.546.098c.042.008.076-.032.076-.09m-9.786 3.86a35 35 0 0 0-1.496-.212c-1.065-.131-1.271-.232-.964-.475.07-.055.252-.13.405-.166.574-.137.58-.169 1.537-7.111.381-2.767.361-3.046-.24-3.295-.33-.137-.353-.178-.216-.394.072-.113.21-.12.734-.033a56 56 0 0 0 1.685.236c.86.107 1.04.16 1.04.302 0 .114-.147.219-.43.309-.68.216-.591-.148-1.395 5.664l-.432 3.117c-.138.99-.058 1.307.404 1.598.414.26.443.563.052.547a6 6 0 0 1-.684-.088m29.258-.977c0-.09.11-.25.244-.355.44-.346.624-1.133.923-3.945.08-.753.239-2.168.353-3.144s.284-2.471.378-3.322l.17-1.548.366-.099c.922-.248.946-.245 1.174.172.115.212 1.138 1.915 2.271 3.783a877 877 0 0 1 2.549 4.22c.545.92 1.088 1.46 1.467 1.46.284 0 .45.28.243.407-.136.084-3.353.91-3.544.91-.225 0-.085-.364.202-.527.383-.218.515-.554.407-1.033-.094-.416-1.006-2.084-1.179-2.155-.17-.07-3.71.844-3.794.98-.114.184-.216 1.73-.14 2.127.14.732.403 1.006.966 1.011.282.002.381.051.422.206.029.112.044.203.034.203s-.758.183-1.661.406c-.904.223-1.69.405-1.747.405s-.104-.073-.104-.162m4.057-5.472a48 48 0 0 0 1.609-.415c.02-.014-.053-.176-.163-.36s-.766-1.292-1.457-2.462l-1.257-2.128-.073.587a97 97 0 0 0-.23 2.46 79 79 0 0 1-.222 2.343c-.053.38-.038.461.078.419.078-.03.85-.229 1.715-.444m-41.733 5.084c-.39-.076-.938-.216-1.217-.311-.751-.258-1.978-.837-1.973-.932.003-.046.11-.54.239-1.097.249-1.084.213-1.046.847-.908.192.042.228.117.23.48.007 1.27 1.168 2.188 2.635 2.082 1.054-.076 1.627-.755 1.704-2.018.055-.906-.155-1.288-1.264-2.286-2.216-1.996-2.521-2.444-2.516-3.688.003-.623.053-.855.275-1.282.907-1.741 3.032-2.039 5.931-.832.639.266.73.336.689.526-.16.73-.466 1.934-.499 1.966-.021.021-.188 0-.371-.047-.312-.081-.341-.127-.466-.74-.168-.824-.363-1.093-1.047-1.442-.632-.323-1.541-.38-2.03-.127-.694.359-1.141 1.44-.925 2.239q.222.82 1.513 1.895c1.77 1.474 2.303 2.283 2.29 3.472-.026 2.273-1.67 3.512-4.045 3.05m-6.653-1.811c-1.441-.499-1.778-.65-1.742-.785.032-.124.162-.166.508-.166.766 0 .972-.414 1.083-2.176l.062-.976-1.836-.627c-1.01-.344-1.873-.613-1.917-.596-.17.065-1 1.175-1.255 1.677-.35.689-.338.861.087 1.332.392.434.447.625.178.617-.373-.012-3.22-1.081-3.22-1.21 0-.073.189-.188.42-.256.762-.225.955-.415 3.282-3.243.585-.712 1.81-2.19 2.721-3.285a134 134 0 0 0 1.841-2.241l.184-.251.644.21c.354.116.637.251.63.302-.049.299-.29 8.371-.29 9.68 0 1.66-.02 1.575.504 2.288.269.366-.18.295-1.884-.294m.098-7.476c.139-2.886.14-2.941.04-2.94-.043 0-.51.554-1.04 1.23s-1.313 1.668-1.74 2.205-.766.987-.753 1.001c.098.1 3.266 1.112 3.314 1.058.033-.038.113-1.187.18-2.554m33.934 6.963a2.6 2.6 0 0 1-.03-.634c.032-.286.053-.296.743-.362l1.865-.18c.635-.063 1.167-.101 1.182-.085.015.015.059.288.098.605l.072.576-.34.06c-.346.059-3.18.359-3.405.359-.067 0-.15-.152-.185-.339m22.264-.455c0-.101.114-.292.254-.423a.75.75 0 0 0 .253-.585c0-.2-.404-1.367-.95-2.746l-1.641-4.154c-.77-1.95-.98-2.25-1.57-2.25-.26 0-.401-.054-.445-.167-.08-.21-.125-.178.651-.473.363-.138.896-.346 1.186-.461l.527-.211.893.685 3.327 2.55c1.338 1.024 2.715 2.106 3.058 2.403s.668.541.722.541-.162-.605-.48-1.344-.955-2.28-1.415-3.426c-.46-1.145-.92-2.191-1.02-2.324-.124-.165-.322-.26-.624-.3-.732-.099-.623-.32.339-.69l1.375-.532c.475-.185.542-.19.596-.05.037.096-.045.27-.205.438-.416.433-.355.795.501 2.975l1.385 3.53c.34.864.837 2.117 1.106 2.783.524 1.3.527 1.263-.118 1.477l-.387.127-1.2-.927-1.656-1.28c-1.057-.814-5.74-4.442-5.859-4.539-.265-.215-.204.017.337 1.28.305.713 1.015 2.457 1.579 3.876 1.116 2.81 1.228 2.983 1.929 2.983.309 0 .392.038.392.181 0 .138-.319.306-1.352.71-.744.29-1.382.529-1.42.529-.037 0-.068-.084-.068-.186m-68.531-3.77c-1.334-.645-1.635-.829-1.583-.965.048-.124.15-.156.38-.12.446.068.908-.153 1.153-.551.115-.188.674-1.322 1.243-2.522l1.885-3.973c.468-.987.851-1.844.851-1.906 0-.176-1.294-.713-1.719-.713-.421 0-1.105.45-1.554 1.024-.24.307-.264.314-.618.198-.202-.067-.368-.158-.368-.201s.273-.658.607-1.364l.607-1.285.426.217c.44.225.935.46 5.205 2.476 1.395.658 2.552 1.21 2.572 1.226.08.065-1.161 2.577-1.274 2.577-.067 0-.228-.048-.357-.107-.228-.104-.234-.14-.198-1.14.035-.944.019-1.06-.185-1.317-.25-.316-1.35-.913-1.594-.864-.148.029-.587.916-3.181 6.44-.503 1.07-.94 2.101-.97 2.291-.048.287-.002.407.269.716.29.33.36.688.13.668-.044-.004-.82-.366-1.727-.805m79.964-1.04c-.024-.069.063-.255.194-.413s.239-.42.239-.584c0-.514-3.877-8.072-4.384-8.547-.26-.243-.372-.282-.695-.238-.289.038-.4.012-.445-.108-.075-.195-.108-.173 1.597-1.043.768-.391 1.441-.685 1.496-.651.157.097.116.252-.155.574-.14.166-.254.394-.254.507s.68 1.536 1.51 3.162c2.96 5.793 2.889 5.68 3.604 5.625.315-.025.416.006.442.135.024.124-.35.365-1.458.938-.82.424-1.526.77-1.57.77-.042 0-.097-.056-.121-.126m-87.326-2.67-.386-.262.057-1.842c.031-1.014.08-3.03.11-4.48s.082-3.15.116-3.777c.036-.643.024-1.14-.026-1.138-.05 0-.361.469-.692 1.04-.331.57-1.3 2.156-2.153 3.525-.854 1.369-1.582 2.639-1.619 2.821-.05.253-.014.403.15.626.243.326.269.46.111.558-.162.1-2.623-1.479-2.56-1.643.034-.09.235-.135.594-.135.687 0 .55.17 3.072-3.82 2.849-4.505 2.854-4.516 2.436-5.047-.153-.195-.19-.326-.126-.457.08-.164.2-.114 1.175.489l1.087.67-.002 1.37c-.004 2.542-.172 8.467-.245 8.646-.04.097-.028.177.025.177s.319-.376.588-.836c.27-.46 1.14-1.887 1.933-3.17.794-1.284 1.476-2.463 1.516-2.62.054-.215.015-.363-.155-.593-.163-.22-.202-.36-.14-.497.079-.173.203-.118 1.33.594 1.377.867 1.541 1.113.703 1.053-.442-.032-.513-.004-.81.314-.178.192-.59.779-.915 1.303s-.936 1.501-1.358 2.17l-2.029 3.22c-.694 1.102-1.293 2.003-1.331 2.003s-.244-.118-.456-.262m92.93-.094c-.094-.113-.074-.208.093-.442.238-.334.268-.63.097-.958-.268-.517-4.8-7.245-5.061-7.515-.243-.25-.37-.297-.826-.304q-.54-.008-.54-.136c0-.07.543-.488 1.206-.93l1.205-.802 1.127.835c1.151.852 2.597 1.916 3.866 2.846l1.358 1c.356.264.662.466.679.45.029-.03-.43-2.19-1.383-6.517-.22-1.004-.401-1.898-.401-1.987 0-.093.493-.49 1.164-.937 1.028-.685 1.175-.754 1.258-.598.068.128.041.244-.098.416-.434.535-.37.661 2.347 4.73 1.397 2.092 2.652 3.877 2.788 3.966.183.12.367.145.693.097.338-.051.457-.032.5.079.039.1-.391.443-1.405 1.118-1.284.856-1.471.952-1.555.796-.068-.127-.04-.243.099-.415.437-.54.327-.791-1.583-3.614a125 125 0 0 1-2.086-3.193c-.468-.752-.864-1.3-.88-1.217-.017.084.111.813.284 1.622 1.072 5.031 1.526 7.223 1.498 7.236a10 10 0 0 0-.373.255l-.341.24-.622-.436c-.343-.24-1.193-.853-1.89-1.365l-3.02-2.213c-1.559-1.142-1.95-1.39-1.95-1.241 0 .023.404.605.897 1.293s1.614 2.31 2.492 3.604c.886 1.307 1.683 2.38 1.793 2.416.11.034.384.05.61.033.282-.02.439.017.496.119.063.114-.212.345-1.167.98-1.042.694-1.27.808-1.37.689m-102.913-6.66c-1.127-.95-1.424-1.251-1.338-1.355.091-.11.191-.103.559.033.43.159.46.157.729-.038.257-.187 1.34-2.152 1.344-2.437.001-.098-2.542-2.288-2.917-2.512-.29-.173-2.034 1.057-2.303 1.624-.18.378-.179.39.051.824.17.318.203.47.123.55s-.478-.19-1.44-.981c-.73-.601-1.35-1.13-1.377-1.173-.09-.145.19-.233.664-.208.28.015.67-.055.976-.175.28-.11 2.548-1.369 5.04-2.796s4.56-2.595 4.595-2.595c.076 0 .886.716.93.822.017.04-.651 1.71-1.485 3.708-2.659 6.372-2.674 6.414-2.608 6.93.107.848.108.944.006.973-.056.017-.753-.52-1.55-1.193m2.813-7.218c.567-1.33 1.008-2.442.98-2.47-.073-.072-4.847 2.814-4.81 2.91.017.043.623.563 1.346 1.154.882.72 1.339 1.033 1.385.95.038-.069.533-1.213 1.1-2.544m112.176 5.369c-.101-.123-.094-.197.035-.382a.87.87 0 0 0 .062-.891c-.193-.36-4.275-4.99-5.57-6.316-.8-.82-.997-.908-1.568-.69-.188.071-.283.058-.376-.054-.068-.082-.105-.161-.083-.177.061-.043 4.657-4.127 5.083-4.517.783-.717.734-.716 1.337-.05q1.073 1.186 1.073 1.287c0 .03-.129.146-.287.259l-.287.204-.486-.246c-.691-.35-1.125-.412-1.53-.218-.186.088-.839.615-1.45 1.17l-1.114 1.01.98 1.099a107 107 0 0 0 1.502 1.653l.523.555.872-.792c.956-.868 1.022-1.029.716-1.759-.15-.36-.146-.38.098-.624.251-.252.254-.252.47-.057.12.109.609.645 1.086 1.193l.867.995-.26.26-.261.262-.34-.208c-.329-.202-.56-.262-.918-.238-.258.018-1.824 1.435-1.762 1.595.028.074.744.911 1.591 1.86l1.54 1.723.264-.193c.146-.107.74-.646 1.319-1.199l1.053-1.004-.045-.548c-.025-.302-.17-.819-.32-1.149l-.276-.6.281-.294.28-.293.233.285c.128.157.549.682.935 1.168l.702.882-2.658 2.354a819 819 0 0 0-2.922 2.596c-.23.21-.279.221-.389.089m-125.701-7.87c-1.021-1.047-1.27-1.356-1.18-1.464.095-.115.178-.112.51.018.378.149.414.145.803-.086.59-.35 6.544-6.197 6.704-6.584.108-.26.109-.387.005-.675-.1-.274-.101-.381-.008-.472.092-.089.754.532 2.794 2.622l2.673 2.738-.829.837c-.456.46-.88.837-.94.837-.062 0-.211-.106-.333-.236l-.22-.235.264-.65c.448-1.103.276-1.479-1.448-3.156l-.59-.576-1.667 1.626-1.666 1.627.816.8c.91.891 1.103.955 1.807.597.515-.263.6-.256.808.06l.173.264-1.251 1.197-1.252 1.197-.268-.252-.268-.252.242-.423c.426-.745.354-.997-.542-1.904l-.786-.795-1.445 1.405c-.908.881-1.504 1.544-1.603 1.782-.148.354-.145.404.049.796.17.345.184.442.074.552-.109.109-.36-.102-1.426-1.195m133.156-5.266-.462-.399.278-.335c.897-1.084 2.2-2.568 2.253-2.568.035 0 .26.169.5.375l.439.375-.19.238c-.403.509-2.29 2.714-2.323 2.714-.019 0-.241-.18-.495-.4m-66.47-3.283c-.24-.29-.364-1.426-.624-5.749-.059-.976-.15-2.39-.202-3.144a171 171 0 0 1-.156-2.586c-.212-4.182-.434-6.461-.65-6.676-.05-.05-1.009-.338-2.13-.64-3.768-1.01-5.251-1.59-7.206-2.815-1.523-.954-1.87-1.227-3.23-2.543-.807-.782-1.269-1.346-2.005-2.452-1.559-2.34-2.024-3.312-2.736-5.715-.337-1.138-.38-1.417-.423-2.732-.054-1.66.06-2.725.484-4.523.367-1.557.58-2.145 1.503-4.145l.558-1.208-.216-.174c-.256-.207-.736-.272-2.961-.401-.92-.054-2.678-.165-3.905-.248-7.253-.491-7.393-.52-7.054-1.411.13-.342.519-.406 4.113-.67 1.618-.12 3.877-.304 5.02-.409 2.846-.262 4.241-.38 6.085-.514l1.572-.115.963-.94c1.366-1.332 2.248-1.88 3.029-1.88.293 0 .471.064.618.222.35.375.25.65-.531 1.469-.282.294-.384.477-.338.598.061.16.202.169 1.556.105 1.704-.08 2.01-.176 1.993-.623-.007-.166-.354-1.03-.772-1.923-.992-2.12-1.293-2.892-1.367-3.515-.067-.567.022-.69.5-.693.439-.002 1.118.263 3.141 1.228 2.266 1.08 2.427 1.126 2.602.742.159-.349.284-2.175.421-6.13.06-1.7.15-3.777.203-4.614.052-.836.143-2.639.201-4.005s.153-3.398.21-4.513l.255-5.071c.084-1.674.195-3.796.247-4.716s.142-2.837.198-4.26.148-3.475.204-4.563c.11-2.132.236-4.856.413-8.874.131-2.987.235-4.004.42-4.12.174-.111.704-.11.88.002.239.15.307.853.523 5.335.115 2.398.253 5.023.306 5.831.088 1.334.23 4.367.505 10.75.098 2.28.22 4.93.407 8.798.227 4.708.305 6.382.404 8.595.057 1.283.15 3.04.206 3.905.161 2.5.278 4.59.354 6.322l.07 1.607.369-.07c.203-.038.86-.293 1.46-.567l2.22-1.013c1.196-.546 1.637-.666 2.059-.56.491.124.367.67-.715 3.155-1.378 3.163-1.34 3.054-1.14 3.253.304.305 3.408.474 3.501.192.02-.058-.19-.371-.465-.696-.584-.69-.692-.999-.47-1.339.347-.529.958-.407 2.312.462a9 9 0 0 1 1.42 1.176c.348.37.749.732.89.806s.895.184 1.674.245c1.69.131 3.165.26 5.422.47 2.037.19 3.606.315 5.679.454 3.705.248 4.152.354 4.156.983.004.572-.563.664-6.489 1.042-4.72.302-7.33.518-7.53.623-.248.131-.227.257.19 1.164.893 1.946 1.592 3.688 1.723 4.297.588 2.733.306 6.925-.628 9.304-1.17 2.981-3.298 5.785-5.856 7.715-2.686 2.027-4.455 2.806-9.145 4.028-.781.204-1.52.435-1.644.513-.278.177-.314.387-.434 2.527-.185 3.29-.415 6.902-.51 8.012-.053.614-.166 2.28-.251 3.702-.17 2.844-.272 3.593-.524 3.87-.196.217-.769.25-.932.053m-5.495-33.596c.401-.12.674-.295 1.06-.684.943-.951 1.627-2.797 1.63-4.399 0-.613-.043-.976-.126-1.06-.184-.183-.327-.127-3.403 1.32-1.52.717-1.82.798-2.145.584-.472-.309-.393-.614.855-3.308l.974-2.107c.135-.294.245-.687.245-.872v-.337l-1.648-.114c-3.914-.27-3.895-.27-4.047-.003-.101.177-.134.722-.13 2.115l.007 1.876.376 1.13c.492 1.482 1.102 2.407 2.538 3.847 1.15 1.153 1.973 1.777 2.669 2.026.496.177.504.177 1.145-.014m13.34-.078c.985-.46 2.992-2.285 3.795-3.453.49-.712 1.168-2.224 1.436-3.205.193-.707.235-1.107.233-2.23-.003-1.575-.12-2.078-.506-2.175-.524-.131-5 .206-5.315.4q-.341.21.467 1.876c1.078 2.223 1.79 3.906 1.803 4.26l.013.354-.507.027c-.424.022-.697-.058-1.673-.493-3.038-1.354-3.465-1.527-3.62-1.468-.143.055-.156.223-.103 1.354.088 1.871.456 2.918 1.373 3.905.631.68 1.282 1.087 1.736 1.086.198 0 .588-.108.867-.238m-77.75 32.616-1.137-1.517-.776-1.035.474-.362c.261-.2.51-.35.553-.334.092.033 2.346 3.032 2.3 3.061-.017.011-.22.166-.451.344-.231.179-.461.324-.512.324s-.253-.217-.451-.481m146.459-1.445q-.146-.091-.117-.495c.054-.746.29-.56-4.82-3.795-1.459-.924-2.791-1.752-2.96-1.84-.419-.215-.788-.2-1.139.05-.279.2-.498.195-.498-.01 0-.052.574-1.006 1.274-2.12 1.821-2.893 2.579-3.587 3.918-3.588 1.244-.001 2.83 1.212 3.186 2.438.323 1.112.016 2.284-1.015 3.879-.257.396-.467.742-.467.768 0 .054 1.037.73 2.274 1.485.906.552 1.378.627 1.81.286.256-.2.493-.257.607-.144.042.042-1.328 2.325-1.894 3.156-.007.01-.08-.02-.16-.07m-2.655-6.02c.808-1.36.794-2.213-.053-3.119-1.166-1.246-2.844-1.461-3.75-.48-.38.41-1.153 1.745-1.063 1.834.047.048 1.016.676 2.153 1.398 1.608 1.02 2.094 1.284 2.184 1.187.064-.069.302-.438.53-.82m-153.512-.213c-.464-.806-.847-1.502-.852-1.546-.02-.178.339-.133.624.078.231.171.38.208.633.158.408-.082 7.456-4.14 8.014-4.616.372-.316.402-.379.376-.795-.02-.316.018-.478.122-.536.117-.066.34.24 1.01 1.392 1.025 1.76.96 1.611.747 1.693-.106.04-.257-.014-.391-.14-.145-.136-.357-.206-.625-.206-.344 0-.975.33-4.151 2.17-2.06 1.194-3.9 2.311-4.089 2.483-.314.287-.339.351-.292.765.046.407-.028.566-.264.566-.011 0-.4-.66-.862-1.466m161.506-2.761c-.037-.038-.042-.21-.01-.383.107-.571-.183-.78-2.984-2.15-5.898-2.881-6.024-2.929-6.493-2.43-.144.153-.3.224-.424.191-.107-.028-.195-.064-.195-.08 0-.017.516-1.096 1.148-2.398a606 606 0 0 0 1.689-3.507c.298-.628.578-1.141.622-1.141.139 0 2.22.997 2.22 1.063 0 .034-.068.193-.15.354-.149.286-.166.29-.96.275-1.118-.021-1.207.058-2.103 1.861l-.73 1.467 1.997.989c1.769.876 2.01.97 2.117.826.066-.09.308-.59.537-1.114.463-1.055.459-1.117-.12-1.729-.295-.311-.298-.325-.138-.634.09-.174.186-.316.213-.316.054 0 2.71 1.32 2.773 1.378.022.02-.016.17-.085.335-.118.286-.15.299-.707.282-.382-.011-.645.034-.76.13-.098.08-.402.592-.675 1.136l-.496.99 2.194 1.069c1.206.588 2.212 1.07 2.236 1.07.094 0 1.364-2.764 1.415-3.08.073-.444-.122-.796-.815-1.475l-.56-.549.16-.313a4 4 0 0 1 .193-.352c.019-.021.604.272 1.3.652 1.008.55 1.25.722 1.186.85l-1.686 3.48c-.884 1.827-1.66 3.322-1.723 3.322a.3.3 0 0 1-.186-.069zm-160.65-4.106c-.129-.305-.12-.334.16-.57.317-.267.593-.723.593-.982 0-.087-.202-.59-.449-1.118l-.448-.96-1.149.54c-2.256 1.061-2.52 1.205-2.78 1.513-.212.252-.256.396-.228.75.02.24 0 .445-.041.453-.043.008-.122.02-.177.026-.125.012-1.64-3.18-1.565-3.3.091-.148.253-.1.58.177.444.373.738.306 2.682-.607l3.296-1.546c.906-.425 1.976-.927 2.377-1.117.87-.411 1.18-.753 1.124-1.234-.029-.248.01-.364.142-.435.149-.08.206-.038.323.235a354 354 0 0 0 2.17 4.642c.25.53.56 1.198.69 1.484l.235.52-1.123.523c-.617.287-1.133.51-1.147.494a5 5 0 0 1-.185-.345c-.155-.305-.151-.325.095-.555.14-.132.392-.446.561-.699.241-.36.296-.537.26-.825-.046-.351-1.215-2.93-1.33-2.93-.093 0-3.958 1.835-4.047 1.921-.125.122.812 2.01 1.065 2.146.137.073.44.094.808.055.58-.06.593-.056.751.25.09.172.147.326.129.342-.067.061-3.108 1.473-3.172 1.473-.036 0-.126-.144-.2-.321m165.173-5.43c-.07-.026-.127-.192-.127-.37 0-.389-.217-.726-.59-.915-.527-.267-8.167-2.927-8.559-2.98-.346-.046-.439-.01-.738.28-.214.207-.402.308-.502.27-.141-.054-.143-.103-.013-.444.08-.211.314-.863.52-1.449.558-1.584.529-1.523.7-1.457.1.037.156.189.156.411 0 .25.082.433.279.629.279.276.456.345 4.69 1.84.977.344 2.399.847 3.161 1.117l1.387.49.426-1.185c.526-1.462.59-1.976.308-2.426-.174-.278-1.117-1.06-1.61-1.336-.124-.07-.126-.137-.012-.451.157-.435.01-.46 1.89.315 1.228.506 1.346.577 1.288.773-.205.682-2.4 6.818-2.457 6.871-.039.035-.127.043-.197.017m-172.473-1.17c-1.085-2.946-1.06-2.863-.887-2.926.105-.039.264.045.435.228.198.211.366.289.626.289.34 0 1.766-.487 5.8-1.98 1.004-.371 1.94-.71 2.082-.754.402-.124 1.063-.481 1.204-.652.071-.086.154-.34.184-.565.087-.644.348-.547.604.224.116.348.375 1.08.576 1.627.301.82.338 1.003.215 1.05-.084.032-.304-.08-.508-.258-.197-.173-.445-.315-.552-.315-.211 0-1.571.474-5.681 1.98-3.292 1.206-3.396 1.256-3.55 1.724-.066.198-.096.424-.066.5.043.113-.12.258-.289.258-.018 0-.105-.194-.193-.43m-2.024-6.136c-.722-1.44-1.122-2.977-1.059-4.07.103-1.771 1.281-2.985 3.733-3.844.887-.311 2.484-.63 3.152-.63.66 0 1.945.293 2.524.576 1.526.747 2.494 2.619 2.562 4.957l.027.899-1.014.278a24 24 0 0 1-1.086.283c-.039.002-.118-.166-.175-.373-.086-.31-.076-.393.052-.465.36-.202.88-.737 1.063-1.096.27-.53.252-1.235-.045-1.865-.503-1.063-1.298-1.489-2.899-1.554-1.68-.067-3.428.349-5.084 1.21-1.352.704-2.012 1.536-2.016 2.546-.003.577.32 1.488.632 1.781.352.33 1.095.627 1.576.63.405.001.448.028.59.37.085.202.117.402.071.444-.073.067-2.025.607-2.194.607-.036 0-.22-.308-.41-.684m177.65-2.135c-.063-.039-.168-.269-.233-.51-.153-.57-.328-.646-3.199-1.386l-3.955-1.022c-.948-.246-1.952-.448-2.231-.449-.448-.002-.538.036-.772.32-.17.207-.32.3-.423.26-.137-.052-.102-.278.266-1.715.369-1.443.449-1.654.625-1.654.157 0 .21.08.236.355.038.405.148.566.517.757.466.24 8.495 2.285 8.975 2.285.274 0 .41-.075.643-.358.19-.23.35-.336.45-.298.135.051.1.28-.243 1.646-.438 1.74-.487 1.874-.656 1.77m-8.427-7.147c-1.088-.178-1.242-.228-1.242-.398 0-.108.111-.889.248-1.736.136-.847.44-2.75.674-4.228s.461-2.726.503-2.774c.06-.068 2.714.292 2.806.38.012.012-.004.185-.037.384-.058.36-.061.362-.767.479-1.215.2-1.553.479-1.762 1.45-.243 1.133-.368 1.023 1.504 1.328l4.184.684c3.317.541 3.724.578 4.05.365.14-.093.326-.304.412-.471.19-.366.617-.44.526-.092-.03.117-.18.986-.331 1.932-.221 1.378-.306 1.714-.428 1.69-.083-.017-.215-.247-.292-.512-.23-.791.026-.716-5.459-1.599l-3.529-.57c-.546-.09-1.014-.142-1.04-.116-.025.025-.097.41-.16.854-.099.703-.092.85.055 1.134.189.366.726.789 1.37 1.079.348.157.418.232.372.403-.031.115-.057.29-.058.387-.002.21.008.211-1.599-.052m-170.326-.522c-.57-.204-.856-.422-1.236-.945-.59-.813-.792-1.662-.844-3.537l-.046-1.635.239-.055c.465-.106 2.014-.308 2.055-.267.022.023.07.201.106.397.063.348.053.36-.503.648-.929.481-1.299 1.318-1.07 2.422.228 1.1.868 1.696 1.82 1.696 1.089-.001 1.705-.326 2.186-1.152.135-.23.454-1.011.708-1.735.514-1.459.974-2.241 1.575-2.676 1.117-.81 2.72-.652 3.71.365.807.83 1.095 1.8 1.104 3.724l.007 1.416-1.1.165c-.774.117-1.109.133-1.132.055-.171-.57-.133-.66.41-.967.806-.454 1.01-.805 1.01-1.73 0-.625-.045-.841-.253-1.208-.4-.706-.697-.871-1.562-.871-1.289 0-1.764.492-2.495 2.586-.55 1.576-.775 2.002-1.374 2.603-.387.388-.663.566-1.063.684-.653.194-1.733.202-2.252.017m138.203-77.547c-1.89-1.518-1.794-1.422-1.635-1.636.117-.157.165-.159.569-.02.687.237.975.054 2.09-1.33 2.491-3.085 5.494-6.852 5.774-7.242.48-.667.533-1.005.242-1.523-.215-.383-.22-.43-.07-.58.149-.15.298-.053 1.839 1.186 1.476 1.187 1.664 1.371 1.573 1.542q-.105.192-.274.124c-.416-.171-1.007-.17-1.271.003-.147.097-1.099 1.209-2.114 2.471l-3.274 4.07c-.786.977-1.532 1.923-1.659 2.104-.349.497-.388.957-.119 1.392.181.293.201.393.101.513-.068.082-.152.15-.187.148-.035 0-.748-.55-1.585-1.222M57.58 80.224c-.092-.172-.066-.278.145-.588.426-.628.333-1.131-.4-2.157l-3.289-4.586-2.962-4.13-.699.509c-1.05.764-1.216 1-1.216 1.732 0 .382.095.893.256 1.373.245.728.248.771.076.9-.281.21-.633.387-.674.34-.26-.298-1.922-2.704-1.93-2.795-.006-.068 1.017-.862 2.272-1.764 4.367-3.139 6.714-4.814 6.743-4.814.017 0 .495.64 1.062 1.42l1.033 1.42-.333.279c-.184.153-.382.279-.441.279-.06 0-.275-.138-.48-.306-.564-.466-1.479-.911-1.87-.911-.192 0-.496.075-.674.167-.49.252-1.49.976-1.49 1.078 0 .083.985 1.477 3.637 5.144.585.809 1.405 1.95 1.822 2.535 1.074 1.508 1.4 1.888 1.746 2.03.289.12.866.097 1.23-.05q.168-.069.277.133c.097.182-.047.313-1.488 1.346-.878.63-1.741 1.253-1.919 1.385l-.322.24zm88.02-4.13a271 271 0 0 0-2.01-1.244c-.108-.062-.113-.127-.023-.294.096-.18.157-.198.373-.116.142.054.436.098.654.098.53 0 .88-.36 1.788-1.837l2.972-4.841c1.779-2.896 2.234-3.706 2.122-3.778-1.252-.807-1.571-.953-2.072-.948-.593.006-1.043.242-1.803.95l-.488.453-.447-.244c-.41-.224-.436-.262-.317-.45.072-.114.486-.789.92-1.5s.828-1.293.876-1.293c.087 0 .445.216 4.965 2.988 3.916 2.402 4.563 2.805 4.563 2.839 0 .059-1.722 2.832-1.818 2.928-.113.113-.82-.298-.815-.473a8 8 0 0 1 .15-.727c.213-.881.193-1.653-.053-2.058-.17-.278-1.625-1.34-1.837-1.34-.055 0-.916 1.371-3.187 5.072-.29.474-1.022 1.66-1.625 2.636-1.586 2.569-1.687 2.942-.993 3.666.235.245.247.295.12.476-.137.196-.209.162-2.014-.962m-79.76-1.559c-.046-.146.026-.31.247-.561.346-.394.38-.64.172-1.223-.077-.216-1.19-2.518-2.472-5.115-2.613-5.291-2.636-5.325-3.491-5.243-.413.04-.494.017-.547-.149-.034-.107-.046-.21-.027-.227s1.962-.995 4.319-2.173l4.284-2.14.66 1.316c.363.724.66 1.362.66 1.418s-.172.188-.38.294l-.381.193-.507-.447q-1.049-.927-1.756-.812c-.28.046-3.57 1.57-3.752 1.738-.043.04 2.404 4.92 2.467 4.92.03 0 .542-.247 1.141-.548 1.508-.758 1.71-1.022 1.552-2.019l-.078-.487.4-.205c.22-.112.414-.19.43-.171.016.017.422.818.902 1.78l.874 1.747-.418.213-.418.213-.368-.351c-.422-.403-.727-.578-1.006-.578-.203 0-2.658 1.17-2.658 1.265 0 .197 2.663 5.326 2.764 5.324.07-.001.902-.4 1.85-.887 1.634-.839 1.737-.909 1.96-1.341.215-.416.23-.533.161-1.319-.128-1.476-.142-1.404.317-1.611l.409-.184.682 1.582c.375.87.682 1.616.681 1.658 0 .065-8.436 4.336-8.563 4.336-.024 0-.074-.093-.11-.206m68.61-4.012c-2.123-.564-3.723-2.096-4.057-3.884-.148-.792-.125-1.936.056-2.813.302-1.46 1.089-3.367 1.884-4.563.47-.707 1.578-1.774 2.223-2.14 1.786-1.017 4.044-.87 5.922.387 1.56 1.043 2.182 2.272 2.185 4.313.003 2.374-1.258 5.435-2.94 7.142-.85.862-1.596 1.331-2.487 1.563-.742.194-2.048.191-2.787-.005m2.123-1.104c1.628-.824 3.297-3.703 3.965-6.838.536-2.518-.011-4.178-1.621-4.916-.723-.33-1.818-.296-2.54.08-1.105.576-2.105 1.87-2.947 3.81-1.163 2.683-1.498 5.027-.909 6.362.696 1.577 2.55 2.264 4.052 1.502m-59.583-.177c-.045-.142.05-.298.353-.578.604-.557.617-.438-.447-3.963-1.707-5.657-2.216-7.295-2.382-7.674-.208-.473-.471-.656-1.066-.738-.312-.043-.413-.105-.436-.269-.027-.186.08-.245.862-.473.49-.143 1.44-.428 2.109-.633 2.961-.905 2.869-.885 4.158-.898 1.398-.014 1.697.077 2.414.739.543.5.965 1.389 1.113 2.344.2 1.29-.286 2.512-1.407 3.536-.301.276-.548.527-.548.56 0 .031.107.058.237.058.606 0 1.5.625 3.055 2.135 1.774 1.724 2.33 2.124 2.953 2.124.353 0 .435.038.483.224.032.123.05.228.037.233-.011.006-.607.184-1.324.397-1.172.347-1.33.372-1.569.248-.145-.076-1.195-1.06-2.331-2.187-2.524-2.502-2.525-2.502-3.872-2.155-.502.13-.958.263-1.014.298-.064.04.014.44.208 1.072.17.554.45 1.464.62 2.022.522 1.703.681 1.917 1.533 2.063.324.055.426.118.426.264 0 .16-.33.292-2.051.819-1.93.59-2.056.615-2.114.432m2.068-7.786c1.243-.403 1.621-.607 2.114-1.141.545-.592.677-1.024.623-2.046-.035-.665-.109-.968-.373-1.534-.182-.388-.43-.812-.552-.943-.728-.781-1.975-.895-3.645-.332-.543.183-.988.363-.988.4.001.096 1.58 5.283 1.712 5.62.06.154.122.28.14.28s.454-.137.969-.304m46.997 5.887c-1.187-.266-2.185-.51-2.219-.544-.13-.13.072-.374.309-.374.385 0 .599-.277.54-.703-.063-.47-2.04-5.464-2.338-5.906-.249-.37-.598-.575-1.124-.66l-.342-.056-.21.95c-.981 4.45-1.022 4.784-.632 5.198.134.144.328.287.43.32.118.037.188.156.188.319 0 .303.228.325-2.46-.245-1.654-.35-1.8-.399-1.8-.599 0-.22.232-.338.667-.34.29-.003.622-.384.801-.921.083-.248.45-1.842.817-3.544l1.067-4.933c.22-1.012.4-2.052.4-2.311 0-.488-.15-.721-.69-1.072-.162-.104-.214-.207-.167-.33.09-.234.113-.231 1.901.167.849.189 1.737.375 1.974.414.616.102.57.473-.076.61-.85.181-.942.375-1.563 3.292-.356 1.672-.434 2.194-.338 2.255.276.175 1.096.083 1.625-.183 1.102-.553 3.55-2.436 4.032-3.102.376-.52.408-1.088.078-1.395-.122-.113-.285-.206-.362-.206-.098 0-.119-.068-.07-.229.04-.125.082-.241.096-.257.024-.028 4.339.887 4.382.93.012.011-.005.122-.037.245-.042.163-.135.223-.342.223-.433 0-1.376.548-3.055 1.775l-2.505 1.831c-.692.506-.974.773-.965.913.012.17.722 1.926 2.486 6.154.504 1.208.904 1.827 1.362 2.11.24.15.348.29.348.46 0 .135-.012.241-.026.236s-.996-.226-2.182-.492M89.827 65.55c0-.154.096-.285.28-.38.359-.186.59-.455.665-.773.073-.313-.021-1.281-.48-4.92a663 663 0 0 1-.514-4.157c-.297-2.53-.435-2.869-1.258-3.09-.302-.082-.417-.166-.417-.305 0-.248.096-.273 1.724-.453.753-.083 1.894-.221 2.536-.306 3.342-.443 4.953.019 5.747 1.647.26.531.283.678.285 1.746.002 1.022-.028 1.226-.236 1.645-.34.684-.92 1.302-1.692 1.805l-.671.438.523.248c.687.327 1.275.957 2.66 2.854 1.267 1.734 1.674 2.126 2.296 2.21.351.047.418.093.418.287 0 .26-.095.285-1.858.497l-.995.119-.483-.614a68 68 0 0 1-1.582-2.187c-2.04-2.918-2.056-2.93-3.956-2.692-.538.067-.558.08-.558.377 0 .679.526 4.288.663 4.554.18.347.525.6.818.6.12 0 .275.069.344.152.273.329.052.41-1.636.601-.913.103-1.876.22-2.141.26-.457.07-.482.061-.482-.163m3.97-7.392c.953-.16 1.389-.36 1.905-.878.603-.602.748-1.086.7-2.335-.03-.832-.087-1.144-.275-1.53-.429-.881-1.08-1.347-2.042-1.461-.634-.075-2.641.17-2.703.33-.049.128.66 5.919.74 6.05.05.08.298.055 1.674-.176m18.342 6.64a51 51 0 0 0-1.547-.085c-.436-.011-.482-.035-.482-.253 0-.201.065-.25.397-.304.27-.043.48-.163.659-.375.35-.417.348-1.074-.009-2.59-.32-1.363-.012-1.217-2.771-1.313a241 241 0 0 1-2.13-.081c-.23-.014-.292.081-.68 1.05-.49 1.222-.624 1.98-.43 2.447.136.329.628.696.933.696.124 0 .177.081.177.27v.267l-1.394-.068c-2.744-.136-2.967-.166-2.963-.407.003-.15.132-.274.431-.416.576-.274 1.039-.976 1.802-2.738.339-.781 1.226-2.835 1.971-4.564 2.27-5.263 2.64-6.086 2.716-6.06.04.014.405.027.81.028l.734.002.533 2.153c.87 3.514 2.454 9.707 2.672 10.446.22.744.667 1.355 1.066 1.455.171.043.242.132.242.303 0 .238-.017.242-.836.226a50 50 0 0 1-1.902-.09zm-1.46-5.853c-.03-.097-.353-1.41-.718-2.915s-.718-2.956-.784-3.221-.151-.448-.19-.406c-.14.154-2.648 6.43-2.592 6.487.052.051 2.178.174 3.748.217.518.014.583-.005.535-.162" style="display:inline;fill:#dad4d4" transform="translate(-.557 -6.781)scale(.16692)"/><path d="M104.116 205.586c-.3-.158-1.391-.734-2.423-1.281a682 682 0 0 0-4.513-2.362 838 838 0 0 1-3.651-1.902c-1.048-.553-5.425-2.85-9.33-4.895l-4.21-2.206c-1.087-.57-3.05-1.597-4.36-2.281l-4.462-2.333c-1.144-.6-3.106-1.626-4.361-2.282s-2.99-1.569-3.854-2.027a280 280 0 0 0-3.142-1.634c-1.075-.548-1.726-.95-2.066-1.276l-.496-.475.042-.64c.035-.54.17-.92.862-2.416a2263 2263 0 0 1 6.756-14.451c.364-.781 1.037-2.219 1.496-3.195s.984-2.094 1.166-2.485l1.568-3.346c1.362-2.903 4.997-10.676 6.664-14.25.586-1.254 1.42-3.034 1.853-3.954s.904-1.925 1.043-2.232c.257-.562 1.296-2.782 2.66-5.679.407-.864 1.046-2.234 1.42-3.042.779-1.685 1.685-3.62 2.923-6.237.474-1.004 1.352-2.876 1.95-4.158 1.717-3.679 2.519-5.39 3.088-6.592.291-.614.793-1.687 1.115-2.384.323-.697.95-2.043 1.395-2.992s1.77-3.777 2.944-6.287c1.175-2.51 2.555-5.454 3.067-6.542.513-1.087 1.151-2.456 1.418-3.042s.69-1.498.94-2.028.66-1.397.908-1.927c1.54-3.276 2.058-4.158 2.445-4.158.085 0 .3.123.48.273.332.28 1.703 2.972 3.372 6.623.42.92 1.184 2.563 1.696 3.65.512 1.089 1.239 2.64 1.614 3.449 1.347 2.9 5.722 12.255 6.546 13.995a987 987 0 0 1 2.765 5.882c.586 1.256 1.43 3.058 1.877 4.006a254 254 0 0 1 1.291 2.79c.265.585.734 1.589 1.042 2.23.308.642 1.21 2.559 2.005 4.26s1.865 3.983 2.379 5.07a284 284 0 0 1 1.095 2.333c.088.196.739 1.587 1.447 3.093s1.55 3.31 1.872 4.006c.32.698.959 2.067 1.418 3.043.46.976 1.098 2.345 1.42 3.042.322.698 1.006 2.158 1.52 3.246a297 297 0 0 1 1.182 2.523c.136.3 1.14 2.444 2.23 4.766 1.092 2.322 2.303 4.906 2.692 5.743.39.836 1.02 2.182 1.401 2.991 2.889 6.134 5.762 12.308 6.151 13.218.238.555.34.95.34 1.311 0 .487-.029.546-.481.972-.334.314-1.17.811-2.713 1.612a4219 4219 0 0 0-15.263 7.986 6284 6284 0 0 1-10.953 5.732l-4.361 2.28c-1.255.655-2.738 1.431-3.296 1.725s-2.087 1.095-3.398 1.78c-1.31.684-3.296 1.73-4.411 2.325-2.804 1.495-2.89 1.518-3.814 1.036m1.484-8.274c.18-.274.31-1.374.404-3.408.035-.753.129-2.1.208-2.992.08-.892.19-2.352.246-3.245.056-.892.149-2.307.206-3.144.058-.836.146-2.274.195-3.194s.12-1.75.157-1.842c.087-.219.358-.322 1.827-.696 4.353-1.109 5.925-1.762 8.417-3.496 3.86-2.687 6.608-6.731 7.304-10.75.352-2.036.292-5.784-.115-7.158-.18-.608-.711-1.9-1.47-3.572-.558-1.23-.597-1.459-.268-1.582.126-.047 1.073-.139 2.105-.204 2.35-.149 3.557-.234 8.797-.619 1.763-.13 2.637-.257 2.822-.41.242-.201.182-.777-.1-.962-.265-.173-1.821-.353-4.775-.551-.949-.064-2.637-.201-3.753-.306a367 367 0 0 0-3.397-.3c-1.754-.144-3.56-.301-4.216-.369-.481-.049-.565-.102-1.268-.814-1.117-1.131-2.61-2.068-3.297-2.068-.393 0-.752.293-.752.613 0 .303.341.916.7 1.257.618.587.404.695-1.198.608-1.363-.074-1.89-.183-1.978-.412-.036-.093.16-.646.457-1.292.285-.62.648-1.448.806-1.838s.45-1.075.648-1.522c.415-.936.447-1.284.148-1.583-.376-.376-.515-.33-4.42 1.47-1.37.63-1.725.698-1.798.341-.026-.125-.076-1.072-.11-2.104a93 93 0 0 0-.16-3.144c-.113-1.482-.26-4.136-.397-7.2-.101-2.267-.239-5.135-.408-8.52a820 820 0 0 1-.25-5.678c-.084-2.036-.197-4.638-.252-5.781l-.202-4.26c-.056-1.199-.149-2.865-.205-3.701-.146-2.152-.189-2.992-.31-6.035-.135-3.362-.227-4.147-.514-4.386-.263-.218-.583-.227-.872-.024-.296.207-.279-.003-.637 7.808-.267 5.847-.531 11.298-.716 14.807-.112 2.12-.247 4.835-.3 6.034-.053 1.2-.143 3.116-.199 4.26a929 929 0 0 0-.206 4.462c-.057 1.31-.148 3.136-.203 4.056-.054.92-.147 3.101-.205 4.846-.12 3.634-.211 4.573-.457 4.753-.209.153-.17.167-2.076-.748-1.813-.87-2.834-1.29-3.368-1.387-.302-.055-.417-.027-.583.139-.114.113-.207.28-.207.369 0 .314.595 1.928 1.118 3.032 1.211 2.556 1.269 2.736.958 2.994-.09.075-.647.162-1.343.209-2.298.155-2.3.154-1.512-.77.636-.745.726-1.1.363-1.429-.615-.556-2.048.087-3.575 1.604l-1 .993-1.18.104c-.65.057-1.752.15-2.45.209-2.617.216-3.342.278-5.12.44-1.005.093-3.164.275-4.798.406-3.287.264-3.367.286-3.367.932 0 .635.118.655 7.049 1.15 2.139.153 4.233.292 5.463.362 1.191.067 1.585.182 1.585.46 0 .099-.246.696-.546 1.328-1.316 2.77-1.92 5.296-1.921 8.046-.001 1.206.043 1.7.211 2.383.342 1.382.884 2.94 1.345 3.861.59 1.183 2.399 3.892 3.11 4.661.657.71 2.296 2.12 2.922 2.513l.913.577c1.893 1.202 3.707 1.886 7.807 2.943.78.201 1.424.374 1.43.385.206.316.347 1.76.65 6.661.06.977.15 2.391.202 3.144.05.753.145 2.282.208 3.398.148 2.603.356 4.641.5 4.91.172.323.954.301 1.173-.032m5.515-33.463c-.776-.28-1.68-1.245-2.17-2.317-.323-.704-.606-2.527-.51-3.288.085-.688.135-.69 1.498-.076 2.58 1.163 3.295 1.457 3.7 1.517.856.129.944-.31.331-1.631-.223-.48-.406-.898-.406-.927 0-.028-.365-.818-.81-1.755-.447-.936-.812-1.794-.812-1.906 0-.113.064-.257.142-.322.201-.168 1.448-.3 3.573-.378l1.839-.067.137.243c.099.176.137.695.138 1.867.002 1.916-.155 2.617-.958 4.259-.638 1.304-1.579 2.478-2.785 3.477-1.485 1.23-2.21 1.555-2.907 1.304m-13.682-.284c-1.234-.706-2.888-2.317-3.826-3.727-.42-.63-.995-2.07-1.146-2.866-.13-.69-.126-3.65.006-3.997l.105-.276 1.594.067c.877.037 2.13.096 2.786.13l1.191.065v.269c0 .256-.557 1.603-1.377 3.324-1.098 2.308-1.193 2.632-.863 2.96.348.349.757.262 2.392-.508 2.285-1.075 2.886-1.322 3.127-1.288.204.03.222.096.25.933.022.675-.022 1.07-.173 1.572-.11.369-.25.853-.307 1.076-.243.929-1.117 2.041-1.882 2.395-.623.287-1.22.246-1.877-.13" style="display:inline;fill:#e00404" transform="translate(-.557 -6.781)scale(.16692)"/><path d="M99.867 240.905c-9.496-.5-18.63-2.312-27.683-5.492-11.54-4.053-22.185-10.21-31.594-18.276-11.213-9.612-20.405-22.084-26.242-35.605-4.2-9.73-6.666-19.377-7.78-30.425-.174-1.728-.409-6.856-.409-8.925s.235-7.196.41-8.924c.744-7.391 1.96-13.54 3.964-20.052 3.425-11.128 8.553-21.182 15.579-30.542 8.35-11.127 19.33-20.591 31.719-27.344 10.141-5.529 21.72-9.364 33.213-11.002 3.324-.474 5.531-.683 9.107-.865 3.747-.19 6.03-.19 9.777 0 12.018.61 23.364 3.257 34.46 8.039 15.129 6.518 28.874 17.226 38.957 30.348 10.2 13.274 16.865 28.837 19.407 45.32.15.98.203 1.363.451 3.283.382 2.959.717 8.438.717 11.74 0 3.3-.335 8.78-.717 11.738-.248 1.92-.3 2.303-.451 3.284-1.726 11.187-5.49 22.352-10.85 32.186-6.578 12.069-15.744 22.816-26.52 31.097-11.226 8.626-23.769 14.587-37.727 17.929-2.458.589-6.266 1.307-8.62 1.627-.474.065-1.159.159-1.521.21-.755.105-2.012.247-3.55.4-1.954.195-6.98.409-9.31.395-1.266-.007-3.42-.072-4.787-.144m6.592-6.13c0-.168-.042-.305-.093-.305-.052 0-.234-.117-.405-.261-.357-.3-.506-.743-1.332-3.947-.287-1.116-.653-2.53-.813-3.144s-.462-1.789-.672-2.612l-.38-1.495h-.728c-.704 0-.732.01-.826.278s-2.849 6.77-3.703 8.738c-.485 1.118-.913 1.725-1.366 1.936-.214.1-.327.226-.328.366-.002.188.074.222.621.28.343.035 1.19.064 1.883.064 1.243 0 1.26-.003 1.228-.224-.023-.156-.137-.255-.371-.322-.732-.21-.803-.966-.23-2.453l.313-.81.685.034c.377.019 1.253.066 1.945.105l1.26.07.233.963c.385 1.59.293 2.026-.474 2.233-.323.086-.402.155-.402.345 0 .236.004.237 1.902.334 1.046.053 1.936.105 1.977.114s.076-.12.076-.287m-5.679-4.67a29 29 0 0 1-1.182-.083c-.01-.007.441-1.157 1.001-2.553.56-1.397 1.03-2.527 1.045-2.51.04.043 1.266 5.033 1.266 5.152 0 .107-.287.106-2.13-.005zm-6.509 3.883c.021-.149-.031-.251-.152-.294a1.6 1.6 0 0 1-.413-.27c-.349-.315-.333-.586.28-4.785.058-.39.22-1.531.36-2.535.376-2.688.356-2.643 1.287-2.93.098-.031.178-.146.178-.257 0-.223.065-.207-1.826-.463a57 57 0 0 1-1.496-.218c-.302-.054-.33-.037-.33.202 0 .154.08.304.196.365.681.365.68.57-.038 5.632-.08.558-.22 1.563-.311 2.232-.3 2.195-.394 2.426-1.026 2.545-.274.051-.341.112-.341.304 0 .278-.08.255 1.825.53 1.663.241 1.765.238 1.807-.058m30.164-1.086c1.328-.334 1.598-.434 1.598-.586 0-.102-.057-.2-.127-.22l-.538-.148c-.322-.086-.45-.19-.583-.47-.18-.378-.219-1.322-.089-2.171l.069-.448 1.724-.44c.948-.241 1.794-.439 1.88-.439.161 0 .826 1.04 1.131 1.77.285.679.24.93-.218 1.248-.415.287-.467.386-.322.614.067.106.47.034 1.98-.35 1.712-.438 1.893-.505 1.866-.689-.02-.14-.153-.239-.427-.315-.581-.163-.933-.624-2.638-3.46-2.718-4.522-3.835-6.373-3.865-6.407-.033-.039-1.282.272-1.344.334-.023.023-.126.786-.228 1.696-.904 8.01-1.006 8.831-1.17 9.402-.092.317-.285.674-.459.848-.21.21-.281.36-.237.498.073.232-.046.247 1.997-.267m.42-5.641.177-1.867c.059-.614.136-1.48.173-1.927.07-.85.164-.958.425-.485.247.449 1.926 3.285 2.199 3.714.136.214.23.407.21.427s-.652.2-1.403.397c-.75.197-1.474.389-1.608.425l-.244.067zm-37.88 5.42c1.202-.389 1.94-1.558 1.94-3.077 0-1.056-.37-1.697-1.654-2.867-2.02-1.841-2.273-2.215-2.153-3.176.088-.707.397-1.153 1.006-1.455.468-.232.53-.239 1.116-.12 1.128.23 1.586.675 1.796 1.745.114.579.13.6.52.706.222.06.416.094.43.076.04-.046.46-2.044.46-2.188 0-.237-1.34-.796-2.618-1.093-2.246-.521-3.977.386-4.382 2.298-.107.5-.109.72-.01 1.093.193.73.714 1.506 1.428 2.127 2.286 1.989 2.586 2.457 2.33 3.646-.224 1.048-.812 1.558-1.792 1.552-.743-.004-1.406-.238-1.825-.644-.35-.34-.484-.66-.59-1.413-.069-.49-.189-.588-.72-.591-.19-.001-.243.113-.437.936-.121.516-.24 1.035-.263 1.153-.037.185.085.27.894.624.81.354 1.6.612 2.356.77.518.107 1.69.052 2.169-.103m-6.956-1.686a2.6 2.6 0 0 1-.32-.448c-.142-.274-.15-2.595-.019-5.59.053-1.21.124-3.029.157-4.041l.06-1.842-.673-.223c-.37-.123-.705-.185-.746-.137l-.697.848c-.59.719-2.662 3.222-5.064 6.116-1.248 1.504-1.697 1.894-2.262 1.97-.222.03-.404.09-.404.134a.8.8 0 0 1-.054.222c-.083.215 3.384 1.382 3.511 1.182.115-.182.118-.395.005-.395-.048 0-.208-.12-.355-.267-.459-.46-.343-.964.475-2.065.573-.771.654-.84.91-.783.123.027.931.297 1.796.598l1.572.549-.024 1.086c-.015.671-.08 1.221-.173 1.44-.167.4-.558.604-.993.517-.234-.046-.288-.015-.342.2-.036.14-.047.268-.027.282.02.015.86.304 1.863.643 1.728.584 1.83.607 1.918.424.068-.143.038-.252-.114-.42m-2.615-5.233c-.28-.1-.952-.333-1.496-.517-.544-.185-.989-.369-.989-.408 0-.04.331-.486.735-.991.405-.505 1.164-1.459 1.687-2.119l.952-1.2-.065 1.52c-.128 2.97-.188 3.905-.252 3.9a6 6 0 0 1-.572-.185m35.665 4.963c.409-.053 1.283-.152 1.942-.22 1.138-.12 1.196-.136 1.142-.337a3 3 0 0 1-.06-.565c-.004-.57-.057-.599-.963-.505l-1.924.198c-.612.064-1.127.13-1.145.147-.067.068.11 1.377.186 1.377.044 0 .414-.043.822-.095m22.902-1.082c.781-.313 1.42-.606 1.42-.651 0-.295-.149-.404-.553-.404-.296 0-.485-.06-.608-.196-.097-.108-.736-1.58-1.42-3.27a344 344 0 0 0-1.556-3.81c-.174-.405-.298-.735-.275-.735s.306.218.63.484c.323.267 1.244.986 2.046 1.598s1.627 1.249 1.834 1.416c.206.168.528.419.715.558s.693.528 1.124.862l1.61 1.247.826.64.526-.201c.319-.121.515-.253.496-.334-.018-.074-.276-.75-.576-1.504-.781-1.968-2.451-6.208-2.796-7.099-.465-1.204-.472-1.33-.098-1.757.235-.268.304-.424.254-.58-.037-.117-.12-.192-.185-.166-1.81.721-2.761 1.108-2.789 1.135-.019.019-.005.129.032.245.051.16.152.21.422.21.695 0 .594-.172 2.149 3.651.442 1.088.97 2.358 1.171 2.823l.367.845-.633-.548a33 33 0 0 0-1.289-1.047c-.773-.591-.738-.564-1.794-1.382-.455-.352-1.247-.96-1.76-1.35-.515-.39-1.271-.972-1.682-1.293-.41-.32-.816-.583-.9-.583s-.682.211-1.327.47c-.875.35-1.159.506-1.116.616.03.081.056.19.056.242 0 .053.115.067.256.031.382-.096.804.128 1.035.548.397.725 3.203 7.986 3.251 8.417.042.374.01.478-.228.726-.2.208-.258.349-.21.502.038.116.087.212.111.212s.683-.256 1.464-.568m-68.05-2.905c0-.055-.141-.262-.314-.459-.478-.544-.484-.524 1.074-3.826l.812-1.724c.183-.39.677-1.429 1.097-2.306l.764-1.597.503.233c1.21.561 1.397.873 1.29 2.163l-.07.833.307.16c.17.087.349.159.399.159.09 0 1.38-2.63 1.32-2.69-.018-.018-1.104-.542-2.415-1.167l-3.448-1.643c-1.749-.833-2.36-1.1-2.453-1.069-.07.023-1.3 2.536-1.3 2.655 0 .016.185.112.411.214l.411.186.451-.516c.248-.284.656-.615.906-.736.509-.246.75-.208 1.694.265l.475.238-.893 1.855c-.492 1.02-.987 2.06-1.101 2.31-.707 1.542-1.737 3.667-1.977 4.076-.343.585-.586.728-1.096.646-.326-.052-.406-.028-.502.15-.062.117-.098.227-.08.245s.33.17.693.337c.363.168 1.138.532 1.724.81 1.024.484 1.318.529 1.318.198m79.662-2.188c1.177-.609 1.522-.831 1.522-.985 0-.165-.089-.209-.507-.252-.28-.029-.562-.087-.629-.13-.125-.079-.578-.901-1.883-3.418-2.042-3.938-2.508-4.898-2.508-5.158 0-.17.1-.378.253-.521.289-.271.317-.43.108-.603-.117-.097-.44.032-1.648.658-.826.428-1.538.811-1.582.852s-.05.15-.014.242c.048.126.19.17.556.17.438 0 .523.037.765.341.39.489 4.078 7.647 4.243 8.237.039.136-.033.348-.199.593-.234.345-.272.774-.067.763.038-.002.754-.357 1.59-.79m-87.392-3.473c.573-.917 1.16-1.85 1.306-2.072.145-.224.834-1.319 1.53-2.434 1.805-2.894 1.864-2.96 2.502-2.777.315.09.567-.03.567-.271 0-.133-2.185-1.547-2.529-1.637-.287-.075-.352.269-.112.593.114.154.207.387.207.517s-.28.69-.62 1.246c-1.952 3.178-3.103 5.09-3.166 5.259-.04.105-.09.174-.112.152-.021-.022 0-.77.046-1.663.047-.892.11-3.151.138-5.02l.052-3.397-1.145-.722c-1.08-.681-1.151-.71-1.267-.526-.1.16-.084.255.086.53.378.612.387.588-1.294 3.253-.528.837-1.301 2.07-1.719 2.739-1.818 2.914-1.836 2.934-2.502 2.836-.342-.05-.434-.026-.536.14-.113.186-.02.265 1.2 1.026 1.06.66 1.352.801 1.467.706.198-.164.18-.334-.06-.55-.247-.224-.26-.658-.036-1.096.092-.178.588-.986 1.101-1.795.867-1.365 2.542-4.115 2.934-4.817.162-.29.167-.214.114 1.673-.03 1.088-.086 3.621-.123 5.63l-.066 3.652.396.271c.218.15.442.26.498.246s.57-.775 1.143-1.692m92.775.59c1.084-.732 1.227-.86 1.139-1.026-.08-.15-.176-.177-.472-.13-.778.125-.593.33-3.314-3.687a143 143 0 0 0-1.842-2.662c-.353-.488-.617-.887-.587-.887s.384.244.787.543c.75.558 5.365 3.915 6.125 4.457l.424.302.416-.33c.266-.21.4-.39.37-.496a44 44 0 0 1-.26-1.18 88 88 0 0 0-.312-1.42c-.233-.985-1.214-5.7-1.214-5.834 0-.083.165.124.366.459.2.334 1.224 1.909 2.274 3.499s1.94 3.02 1.98 3.177c.054.216.015.363-.156.594-.19.257-.208.348-.114.554l.112.247 1.514-1.031c1.341-.914 1.501-1.053 1.4-1.215-.092-.148-.202-.172-.582-.127-.395.047-.508.018-.732-.185-.331-.3-4.81-6.983-5.065-7.557-.19-.43-.168-.662.093-.966.154-.18.09-.59-.09-.59-.164 0-2.42 1.525-2.42 1.635 0 .092.04.28.308 1.458.05.223.346 1.592.657 3.042.31 1.45.63 2.932.708 3.293.078.36.134.663.122.672-.01.009-.659-.46-1.44-1.04s-1.762-1.304-2.18-1.607-1.319-.962-2-1.466c-.682-.504-1.28-.917-1.328-.917-.147 0-2.554 1.612-2.554 1.71 0 .207.295.322.673.262.309-.05.45-.017.665.152.254.2 4.714 6.76 5.086 7.48.225.435.211.76-.045 1.085-.171.218-.188.3-.089.42.068.081.172.148.23.148.06 0 .665-.376 1.347-.836M50.27 216.882c.094-.113.087-.245-.031-.592-.226-.665-.355-.282 2.06-6.109.508-1.227.967-2.322 1.02-2.434.052-.111.307-.725.565-1.363l.47-1.16-.34-.29c-.792-.672-.318-.842-4.761 1.708-5.979 3.432-6.159 3.52-6.768 3.307-.254-.088-.334-.075-.472.078-.158.174-.121.223.676.888 1.332 1.111 2.002 1.65 2.055 1.65.027 0 .095-.087.151-.192.078-.145.048-.293-.123-.609l-.226-.417.215-.38c.208-.367 1.757-1.542 2.037-1.545.067 0 .706.484 1.42 1.077s1.371 1.125 1.46 1.182c.146.092.12.206-.236 1.026-.663 1.532-1.059 1.882-1.753 1.551-.314-.15-.345-.147-.514.04-.174.192-.173.205.043.356.123.086.44.341.703.566.84.718.98.835 1.495 1.248.278.222.52.438.539.481.052.12.183.093.315-.067zm-1.341-6.874c-.702-.574-1.267-1.076-1.257-1.115.02-.081 4.56-2.823 4.604-2.78.015.015-.445 1.133-1.022 2.483l-1.05 2.455zm117.113 2.002c.502-.446 1.164-1.04 1.471-1.32s.889-.8 1.293-1.154c.404-.356.735-.69.735-.743s-.417-.621-.928-1.261l-.927-1.165-.336.326c-.185.18-.323.353-.307.386.212.423.472 1.058.574 1.398.103.343.102.487-.002.738-.105.252-1.675 1.802-2.341 2.31-.136.104-.313-.05-1.167-1.014a113 113 0 0 0-1.539-1.706c-.293-.313-.532-.616-.532-.675 0-.165 1.5-1.438 1.776-1.508.166-.041.401.025.718.202l.472.264.307-.3.307-.301-.566-.637c-.312-.351-.817-.912-1.124-1.246l-.556-.609-.33.324c-.244.24-.302.357-.224.456.217.272.352.876.243 1.08-.058.108-.453.508-.878.888l-.773.692-.523-.554c-.655-.694-1.937-2.127-2.19-2.45l-.192-.244.861-.755c1.817-1.592 1.943-1.64 3.042-1.12l.623.295.336-.28.336-.28-.264-.315c-.628-.745-1.457-1.641-1.52-1.641-.037 0-.383.285-.767.633-.384.35-1.241 1.113-1.905 1.7a226 226 0 0 0-1.819 1.622c-.337.307-.815.728-1.061.937-.432.365-.441.386-.27.574.163.18.203.185.53.048.195-.082.435-.123.534-.092.217.07 1.406 1.298 2.848 2.942a176 176 0 0 0 1.575 1.775c1.053 1.156 1.846 2.088 1.96 2.303.153.291.142.632-.031.944-.123.22-.12.277.017.43.174.192.101.246 2.514-1.897zm-57.807-5.154c1.172-.594 3.157-1.62 4.412-2.282 2.955-1.559 6.294-3.31 9.026-4.737 1.199-.626 3.161-1.651 4.36-2.279s2.843-1.486 3.652-1.907c.808-.422 2.292-1.198 3.296-1.726 1.004-.527 2.806-1.473 4.005-2.1l6.491-3.4a1885 1885 0 0 1 6.947-3.623c3.946-2.041 3.92-2.025 4.253-2.768.497-1.107.52-2.186.073-3.494-.114-.335-.853-1.978-1.643-3.651-.79-1.674-2.074-4.412-2.854-6.085s-1.752-3.75-2.16-4.615c-.407-.864-1.23-2.621-1.827-3.904a1783 1783 0 0 0-4.818-10.294c-.438-.92-.93-1.97-1.094-2.332a954 954 0 0 0-3.085-6.592c-.224-.474-1.365-2.916-2.536-5.425-4.328-9.275-5.082-10.889-5.858-12.526a872 872 0 0 1-3.073-6.541c-.362-.781-.89-1.916-1.176-2.522a35 35 0 0 1-.52-1.128c0-.015-.278-.615-.618-1.333s-.962-2.035-1.38-2.928l-1.55-3.296c-.433-.92-1.048-2.243-1.367-2.94s-.956-2.067-1.418-3.043-1.161-2.46-1.554-3.296c-.71-1.511-1.276-2.713-2.101-4.462-.237-.502-.546-1.164-.687-1.47-.14-.308-.79-1.7-1.445-3.094a464 464 0 0 1-1.72-3.702 59 59 0 0 0-.867-1.825 41 41 0 0 1-.802-1.724c-1.026-2.343-1.497-2.972-2.45-3.271-1.696-.532-3.373.174-3.977 1.673-.14.349-.99 2.202-1.887 4.117a315 315 0 0 0-1.632 3.512c0 .015-.365.79-.81 1.72-.447.932-.812 1.707-.812 1.724s-.302.665-.671 1.439a421 421 0 0 0-1.763 3.74l-1.067 2.282-2.587 5.527c-1.017 2.176-2.374 5.074-3.014 6.44s-1.451 3.1-1.801 3.854c-.35.753-.875 1.871-1.167 2.485-.291.613-.656 1.389-.81 1.724s-.468 1.01-.698 1.502c-.23.49-.418.907-.418.924s-.313.687-.696 1.49c-1.648 3.452-2.549 5.364-2.549 5.408 0 .026-.587 1.293-1.304 2.816s-1.956 4.16-2.752 5.86c-.796 1.702-1.715 3.66-2.042 4.35s-.595 1.268-.595 1.283-.32.698-.71 1.518-.71 1.502-.71 1.517c0 .016-.29.639-.646 1.385-.356.747-.897 1.905-1.203 2.574-.306.67-.97 2.084-1.474 3.144a1140 1140 0 0 0-2.717 5.78c-2.58 5.528-3.996 8.55-4.648 9.92-.313.659-.57 1.213-.57 1.23 0 .039-.503 1.115-1.94 4.149-.55 1.163-1 2.132-1 2.153s-.473 1.032-1.051 2.247-1.133 2.458-1.234 2.765c-.406 1.24-.067 3.234.663 3.894.207.186 1.055.693 1.886 1.125 2.158 1.123 5.783 3.018 9.42 4.926 3.24 1.698 5.753 3.01 9.889 5.164 1.31.682 2.703 1.412 3.093 1.62.39.21 1.258.668 1.927 1.018a651.363 651.363 0 0 0 5.5 2.877c1.463.759 3.426 1.785 4.361 2.282.935.496 2.75 1.45 4.033 2.117 1.283.668 3.45 1.8 4.817 2.514 3.005 1.572 3.308 1.683 4.462 1.638l.862-.034zm-68.868.308c.114-.105.105-.189-.055-.503-.105-.207-.192-.447-.192-.534 0-.311.524-.933 1.812-2.153l1.307-1.237.723.745c.822.848.892 1.107.497 1.853l-.226.427.29.302.29.303 1.304-1.236c.717-.68 1.303-1.26 1.301-1.288-.001-.028-.112-.184-.245-.347l-.242-.296-.613.275c-.567.254-.635.264-.895.126-.156-.082-.578-.449-.94-.816l-.657-.668 1.62-1.568 1.621-1.568.594.58c.327.32.818.845 1.09 1.169.423.5.497.651.496 1.014 0 .24-.112.665-.257.975l-.255.549.275.287c.152.159.318.288.37.288.137 0 1.796-1.638 1.79-1.767-.002-.06-1.208-1.341-2.68-2.847-2.536-2.596-2.686-2.73-2.853-2.565-.149.145-.158.217-.058.436.24.529.155.744-.616 1.543-1.833 1.901-5.973 5.808-6.22 5.87-.163.041-.396.005-.6-.092-.312-.149-.347-.147-.504.027-.16.177-.104.253 1.118 1.515.708.73 1.329 1.328 1.38 1.328s.155-.057.23-.127m133.794-7.862.966-1.143-.486-.429c-.268-.236-.515-.428-.55-.428-.068 0-.502.485-1.8 2.014l-.836.985.527.468.527.467.343-.395c.189-.218.778-.91 1.31-1.539M35.735 196.51c.233-.178.394-.373.357-.434-.226-.377-2.287-3.085-2.347-3.085-.04 0-.252.141-.468.314a7 7 0 0 1-.528.388c-.2.111 2.183 3.287 2.402 3.203.088-.034.35-.208.584-.386m146.773-3.364c.359-.557.673-1.088.697-1.182.072-.274-.354-.35-.616-.11-.534.489-.941.362-2.91-.901l-1.167-.75.442-.66c1.553-2.317 1.596-4.013.134-5.4-1.106-1.05-2.311-1.354-3.399-.856-.973.446-1.384.953-3.513 4.338-.39.62-.71 1.167-.71 1.215 0 .147.386.312.457.196.035-.056.202-.174.372-.262.417-.216.515-.17 3.026 1.414 1.143.721 2.763 1.74 3.6 2.265.837.524 1.649 1.091 1.805 1.26.25.271.276.359.218.746-.054.362-.033.456.121.543.158.088.232.032.489-.37.166-.26.595-.93.954-1.486m-6.173-4.328c-.809-.51-1.734-1.086-2.056-1.28-.322-.195-.61-.394-.641-.444-.063-.101.43-.944.905-1.546.426-.541 1.256-.919 1.826-.83.942.145 2.154 1.007 2.465 1.75.303.726.092 1.574-.693 2.785-.175.271-.323.493-.327.493s-.67-.417-1.48-.928m-150.318 1.314c.066-.067.121-.333.121-.591 0-.358.055-.519.228-.676.126-.114 1.21-.777 2.409-1.473l3.529-2.049c1.467-.852 2.108-1.169 2.37-1.172.094-.001.31.115.48.258.274.23.334.245.508.123.189-.133.158-.206-.72-1.73-.84-1.46-.932-1.581-1.118-1.481-.17.09-.193.175-.142.497.11.681.042.734-3.69 2.891-4.032 2.33-4.503 2.583-4.818 2.583a.71.71 0 0 1-.506-.203c-.217-.239-.54-.265-.623-.05-.056.147 1.644 3.194 1.783 3.194.037 0 .122-.055.189-.121m162.48-7.588c.47-.975 1.05-2.169 1.29-2.653l.436-.88-.783-.43-1.332-.732c-.53-.291-.553-.295-.689-.11-.29.398-.282.667.03.948.689.618 1.056 1.148 1.056 1.523 0 .31-.735 2.017-1.283 2.98-.099.175-.266.11-2.243-.862l-2.137-1.05.447-.913c.565-1.155.735-1.302 1.433-1.245.515.043.535.035.686-.283.086-.18.156-.357.156-.393 0-.071-2.948-1.505-2.994-1.455a4 4 0 0 0-.18.4c-.153.366-.151.371.183.696.533.516.531.703-.013 1.838-.264.55-.49 1-.503 1s-.564-.265-1.225-.589a188 188 0 0 0-1.945-.94l-.744-.351.723-1.444c.477-.953.814-1.503.993-1.62.197-.13.487-.179 1.074-.183l.803-.006.197-.384c.108-.212.182-.392.164-.4-.018-.01-.523-.256-1.124-.549-.6-.292-1.135-.532-1.189-.532s-.196.217-.317.482c-.12.265-.855 1.782-1.633 3.372-.777 1.59-1.422 3.004-1.431 3.144-.013.192.038.26.21.286.126.017.229-.006.229-.055 0-.047.135-.166.3-.263.376-.222.571-.176 1.88.443a562 562 0 0 1 6.616 3.222c.535.277.775.626.714 1.038-.034.232.007.347.166.459.238.167.03.534 1.979-3.51zm-160.85-1.063c.84-.39 1.529-.77 1.53-.842s-.063-.26-.144-.416c-.137-.267-.18-.282-.653-.237-.89.086-.983.023-1.488-1.014-.249-.512-.44-.968-.425-1.014.03-.09 3.827-1.903 3.987-1.903.106 0 1.165 2.375 1.224 2.746.07.433-.221 1.047-.713 1.506-.307.287-.318.373-.104.802.182.366.07.391 1.685-.38l.88-.422-.511-1.086c-.282-.598-.821-1.749-1.2-2.557-1.748-3.742-1.599-3.468-1.823-3.348-.156.084-.204.212-.204.545 0 .32-.06.491-.23.65-.2.188-1.18.682-3.327 1.675-.758.35-2.097.977-3.187 1.49-2.007.946-2.236.993-2.697.55-.231-.221-.308-.244-.489-.147-.16.085-.191.158-.124.288.05.095.205.424.346.73.756 1.655 1.182 2.536 1.225 2.536.277 0 .37-.163.37-.651 0-.444.044-.57.278-.793.246-.233 1.634-.941 3.249-1.657l.535-.237.403.872c.517 1.12.515 1.334-.02 1.915l-.422.458.17.358c.095.198.212.344.26.326.05-.018.778-.353 1.618-.743m164.057-6.306c.665-1.889 1.993-5.645 2.048-5.789.029-.075-.11-.19-.343-.283a16 16 0 0 1-.594-.25c-.112-.051-.66-.275-1.217-.498l-1.014-.405-.17.376a4 4 0 0 0-.178.438c-.004.033.308.27.693.527.882.586 1.226 1.021 1.228 1.55 0 .29-.707 2.635-.861 2.855-.01.014-.927-.297-2.038-.691a481 481 0 0 0-4.303-1.514c-.675-.223-2.252-.814-2.456-.92-.454-.235-.586-.42-.586-.823 0-.315-.046-.41-.229-.478-.183-.069-.245-.043-.313.13-.208.522-1.081 3.099-1.081 3.188 0 .255.355.213.656-.08.437-.423.87-.397 2.234.134.223.086 1.661.595 3.195 1.13 4.256 1.483 4.336 1.523 4.375 2.186.028.46.067.52.313.483.166-.025.294-.277.641-1.266m-172.62-.025c.014-.313.083-.483.241-.603.27-.203.303-.216 5.444-2.092.502-.184 1.37-.504 1.927-.713.558-.208 1.206-.401 1.44-.429.377-.044.457-.014.711.264.216.237.343.299.519.253.164-.043.212-.109.164-.225-.108-.263-.757-2.038-.977-2.674-.111-.321-.24-.584-.286-.584-.284 0-.405.15-.405.5 0 .646-.13.722-3.093 1.802l-2.637.964c-3.542 1.297-3.74 1.338-4.074.83-.17-.261-.515-.324-.598-.109-.041.109.405 1.428 1.06 3.136.088.227.146.262.324.196.171-.063.222-.174.24-.516m-.907-5.641a22 22 0 0 0 1.034-.286c.012-.011-.027-.209-.086-.439l-.106-.419-.597-.07c-1.162-.134-1.759-.636-2.083-1.75-.188-.65-.087-1.22.327-1.846 1.009-1.524 5.312-2.906 7.469-2.398 1.448.341 2.216 1.19 2.228 2.463.006.651-.316 1.21-.942 1.635-.377.256-.402.303-.36.668.026.216.085.43.131.475s.596-.059 1.22-.23l1.137-.314-.056-.82q-.386-5.64-5.162-5.64c-1.133 0-2.014.153-3.16.546-1.913.656-2.998 1.475-3.57 2.695-.232.495-.262.684-.253 1.577.008.85.06 1.165.326 1.953.304.9.856 2.164 1.064 2.435a.26.26 0 0 0 .262.08c.09-.027.62-.169 1.177-.315m176.272-2.759c.036-.153.22-.88.408-1.614s.341-1.407.341-1.496c0-.264-.46-.196-.653.098-.334.51-.475.501-3.231-.202-3.275-.835-5.257-1.35-5.926-1.541-.598-.17-.94-.518-.94-.956 0-.198-.064-.304-.21-.35-.116-.038-.229-.05-.25-.028-.022.022-.242.823-.489 1.78-.433 1.683-.441 1.744-.247 1.806.147.046.289-.033.534-.301.216-.236.426-.365.593-.365.31 0 7.632 1.842 8.715 2.193.554.18.786.45.786.923 0 .286.035.332.251.332.191 0 .268-.067.318-.279m-7.042-7.133.04-.416-.644-.314c-.354-.173-.783-.473-.954-.667-.31-.353-.31-.356-.24-1.222.039-.478.091-.89.116-.915.058-.057 1.523.167 7.513 1.15 2.118.349 2.467.522 2.467 1.223 0 .18.073.291.228.351.304.117.35.054.427-.601.036-.307.168-1.16.293-1.895l.227-1.338-.207-.056c-.13-.036-.245.005-.309.108-.393.641-.558.747-1.17.747-.327 0-.813-.043-1.081-.095a99 99 0 0 0-2.21-.366c-.95-.149-2.513-.403-3.477-.564s-1.867-.293-2.006-.293c-.347 0-.4-.207-.255-1.012.186-1.045.44-1.219 2.314-1.585.196-.038.228-.108.228-.499 0-.254-.047-.454-.108-.454-.06 0-.704-.093-1.433-.206s-1.338-.193-1.354-.177c-.015.015-.147.758-.291 1.65-.145.893-.309 1.874-.364 2.181-.118.664-.669 4.11-.764 4.783l-.067.472.543.104c.995.19 2.367.39 2.433.356.036-.019.083-.221.105-.45m-169.865-.26c.721-.202 1.428-.795 1.832-1.538.152-.28.453-1.003.668-1.607.58-1.632.666-1.805 1.109-2.248.761-.76 2.011-.786 2.655-.052.53.604.69 1.748.338 2.427-.174.334-.904.957-1.261 1.076-.08.026-.093.179-.042.478l.074.44.47-.062c1.12-.146 1.765-.26 1.826-.321.036-.037.062-.644.057-1.35-.014-2.401-.691-3.888-2.055-4.512-.658-.301-1.7-.29-2.424.027-.927.406-1.429 1.129-2.087 3.003-.489 1.39-.628 1.695-.94 2.066q-.611.727-1.7.742c-1.162.016-1.78-.575-1.94-1.856-.132-1.056.301-1.84 1.255-2.27.384-.174.393-.19.341-.6-.03-.23-.068-.437-.085-.457s-.554.042-1.193.138c-1.356.205-1.283.107-1.283 1.728 0 2.47.812 4.273 2.135 4.74.597.211 1.516.214 2.25.008zm137.881-76.509c.111-.177.1-.259-.077-.544-.439-.71-.375-.84 1.676-3.405 5.809-7.263 5.538-6.98 6.365-6.652.412.163.428.161.605-.056.219-.267.39-.087-1.688-1.76l-1.607-1.294-.206.207-.207.207.216.35c.272.44.275.84.007 1.278-.188.308-1.168 1.547-5.147 6.503-2.002 2.493-2.048 2.53-2.867 2.32-.458-.117-.51-.112-.644.07-.13.173-.126.217.025.368.356.356 3.219 2.613 3.317 2.615.056.001.16-.092.232-.207m-96.68-3.09c.502-.36 1.333-.952 1.846-1.316s.958-.702.988-.75c.03-.05-.024-.185-.121-.301-.17-.204-.195-.206-.65-.053-.434.146-.502.145-.832-.011-.47-.223-.571-.353-3.765-4.817a967 967 0 0 0-3.112-4.333l-.39-.53.837-.56c.707-.474.908-.56 1.295-.56.515 0 .988.217 1.81.833.587.438.653.437 1.214-.025l.235-.193-1.046-1.472c-.576-.81-1.097-1.472-1.16-1.474-.06-.001-.403.215-.76.48-.356.267-1.097.803-1.645 1.193s-1.377.982-1.842 1.316l-2.806 2.017a128 128 0 0 0-2.051 1.49c-.083.074 1.939 3.025 2.077 3.032.034.001.248-.132.476-.298l.414-.3-.2-.572c-.626-1.78-.48-2.274.983-3.32l.516-.369.496.682c.273.374.72 1 .994 1.39.275.391.737 1.03 1.028 1.42 1.441 1.934 3.98 5.53 4.188 5.933.276.537.242.888-.136 1.383-.22.289-.238.364-.127.541.071.114.175.205.231.203s.513-.299 1.015-.659m88.93-2.7c.143-.203.13-.246-.196-.627-.204-.237-.35-.517-.349-.669.001-.385.356-1.073 1.573-3.05.601-.976 1.732-2.824 2.514-4.107 1.172-1.925 1.878-3.05 2.058-3.281.046-.06 1.285.705 1.572.97.146.133.326.428.401.656.135.41.097.728-.276 2.27-.039.161.05.276.382.496l.432.286.187-.23c.25-.31 1.835-2.948 1.79-2.98-.02-.015-.903-.553-1.963-1.196a895 895 0 0 1-3.955-2.417c-3.279-2.017-3.686-2.253-3.787-2.19-.054.033-.496.721-.983 1.53-.962 1.592-.958 1.572-.31 1.918l.362.193.541-.511c1.15-1.087 1.836-1.185 3.061-.437.39.24.727.45.747.468.035.031-1.216 2.111-3.686 6.129-.6.976-1.254 2.048-1.452 2.383-.952 1.609-1.395 1.983-2.114 1.783-.546-.152-.597-.142-.725.138-.11.24-.062.278 1.886 1.465 1.099.67 2.03 1.221 2.068 1.224s.139-.094.223-.214m-77.368-4.39a381 381 0 0 0 4.298-2.143c.042-.04-.09-.394-.451-1.21-.123-.279-.394-.905-.601-1.39l-.377-.884-.507.256c-.429.218-.497.29-.444.478.034.122.088.655.12 1.185.086 1.445.066 1.47-2.046 2.557-.944.487-1.762.886-1.819.888-.095.003-2.733-5.16-2.666-5.22.227-.204 2.388-1.166 2.62-1.166.228 0 .44.122.804.463l.495.462.413-.21c.228-.117.414-.262.414-.324s-.385-.906-.856-1.876l-.856-1.763-.466.226-.466.227.064.662c.087.885-.07 1.073-1.486 1.783-.606.304-1.126.553-1.155.553-.051 0-2.385-4.615-2.385-4.717 0-.03.78-.44 1.734-.914 2.228-1.104 2.453-1.11 3.62-.089l.532.465.454-.187c.25-.103.454-.233.455-.289 0-.056-.308-.724-.685-1.483l-.684-1.382-4.386 2.162c-2.413 1.188-4.387 2.213-4.387 2.276 0 .355.195.478.68.432.392-.037.541-.003.768.176.194.153.986 1.63 2.574 4.801 2.377 4.746 2.813 5.717 2.706 6.023-.035.099-.196.321-.358.494-.264.281-.282.342-.173.58.066.146.148.252.182.236zm66.7-1.997c1.216-.258 2.522-1.175 3.488-2.447 1.239-1.634 2.273-4.59 2.273-6.498 0-2.162-.997-3.73-2.97-4.671-1.138-.543-1.65-.67-2.678-.67-2.648.005-4.72 1.815-6.096 5.324-.607 1.546-.765 2.315-.766 3.702 0 1.347.156 1.981.698 2.84.27.425 1.178 1.292 1.67 1.592 1.297.79 3.024 1.117 4.382.828m-2.69-1.17c-.614-.213-1.4-.91-1.668-1.48-.589-1.252-.439-3.052.455-5.45 1.316-3.53 2.918-5.2 4.837-5.046 1.185.095 2.08.77 2.497 1.88.364.975.247 2.768-.29 4.44-.856 2.656-2.15 4.68-3.498 5.466-.623.364-1.6.443-2.333.19m-55.09-.654c1.118-.342 2.046-.633 2.063-.648.017-.014 0-.146-.036-.292-.06-.235-.117-.265-.505-.265-.546 0-.933-.352-1.181-1.075-.316-.92-1.213-3.914-1.18-3.937.12-.085 1.638-.465 1.859-.465.534 0 1.015.364 2.625 1.988.898.905 1.905 1.88 2.238 2.167.688.593.51.59 2.266.043 1.11-.346 1.146-.366 1.116-.63-.03-.247-.079-.276-.557-.324-.693-.07-1.21-.437-2.791-1.981-1.638-1.6-2.119-1.96-2.897-2.169l-.409-.11.636-.636c.35-.35.767-.885.927-1.19.27-.514.292-.638.292-1.67 0-1.34-.214-1.992-.915-2.77-.692-.771-1.26-.979-2.634-.963-1.15.013-1.348.058-4.564 1.043-.334.103-1.055.322-1.601.487s-1.02.327-1.052.36-.03.174.006.316c.056.224.12.259.475.259.93 0 .833-.205 2.478 5.223l.925 3.042c1.044 3.423 1.046 3.443.445 3.992-.312.286-.39.42-.343.597.033.126.11.228.17.228.062 0 1.026-.279 2.144-.62m-1.556-8.482c-.221-.71-.525-1.704-.673-2.206a87 87 0 0 0-.464-1.512c-.106-.33-.193-.652-.193-.715s.4-.248.887-.412c.719-.242 1.062-.299 1.8-.3.85-.002.945.02 1.37.306.592.399 1.063 1.192 1.275 2.148.197.883.146 1.376-.221 2.134-.373.77-1.046 1.187-2.677 1.66a22 22 0 0 1-.68.19c-.012 0-.202-.582-.424-1.293m50.676 7.171c.024-.208-.039-.29-.321-.425-.626-.298-.807-.642-2.444-4.641-1.018-2.486-1.134-2.765-1.388-3.343l-.155-.35 1.176-.857c.646-.47 1.745-1.274 2.442-1.785 1.584-1.16 1.922-1.365 2.685-1.627.526-.18.616-.249.643-.485.026-.22-.009-.275-.176-.275-.114 0-.402-.049-.64-.108-1.299-.322-3.576-.786-3.647-.742-.2.124-.073.545.21.691.36.187.442.384.353.857-.12.64-1.652 1.99-3.779 3.329-.797.502-.893.537-1.496.537-.474 0-.643-.037-.643-.138 0-.206.78-3.678.976-4.348.208-.709.402-.898.988-.964.389-.044.458-.088.502-.318.028-.147.04-.277.028-.29s-.636-.16-1.385-.325l-1.82-.404a20 20 0 0 0-.836-.168c-.37-.064-.38-.057-.38.24 0 .24.074.35.348.51.509.301.584.685.36 1.857-.181.955-.224 1.157-.61 2.928a437 437 0 0 0-.819 3.803c-.696 3.325-.832 3.723-1.33 3.897-.172.06-.414.109-.54.109-.16 0-.246.078-.294.265-.036.146-.044.288-.017.314s.995.251 2.152.499c1.656.354 2.12.422 2.185.32.156-.245.086-.442-.22-.623-.688-.406-.727-.726-.312-2.6.118-.53.332-1.535.476-2.232.145-.697.298-1.305.341-1.35.117-.124.782.027 1.05.237.316.25.516.678 1.637 3.503 1.17 2.947 1.212 3.29.413 3.29-.168 0-.253.074-.301.265-.037.146-.053.28-.036.296.07.07 4.205.943 4.39.927q.203-.017.234-.276m-37.27-1.823c.664-.094 1.452-.196 2.715-.353.442-.055.461-.07.42-.349-.035-.246-.11-.308-.47-.399-.709-.179-.873-.5-1.068-2.092a622 622 0 0 0-.356-2.854c-.044-.36.003-.38 1.194-.502 1.144-.117 1.354.063 3.215 2.748 1.294 1.867 2.03 2.786 2.23 2.786.083 0 .745-.07 1.47-.157 1.282-.153 2.293-.15 4.995.019l.938.058v-.3c0-.26-.058-.322-.448-.47-.97-.37-1.014-1.043-.213-3.153.149-.39.305-.746.347-.789s1.134-.023 2.428.045l2.351.124.093.36c.303 1.169.526 2.488.471 2.783-.075.4-.402.73-.82.83-.411.097-.558.229-.558.498 0 .221.03.226 1.75.295.962.038 2.05.096 2.42.13l.671.06.046-.316c.036-.243.003-.33-.139-.375-.37-.118-.773-.56-.983-1.083-.119-.294-.63-2.177-1.138-4.185l-1.563-6.186-.64-2.535-.44-.078a4.6 4.6 0 0 0-.892-.051l-.451.027-1.595 3.702-1.75 4.056c-.086.196-.457 1.063-.825 1.927-1.155 2.71-1.67 3.535-2.348 3.758-.193.064-.343.184-.35.281-.01.155-.015.155-.056.003-.026-.1-.236-.215-.52-.286-.617-.154-1.175-.731-2.451-2.531-1.124-1.585-1.692-2.185-2.364-2.496l-.487-.226.443-.26c.797-.467 1.465-1.155 1.819-1.873.311-.633.332-.74.324-1.692-.011-1.294-.266-2.022-.945-2.7-.751-.752-1.376-.943-3.103-.947-.781-.002-1.797.053-2.257.122s-1.19.17-1.623.224c-2.14.268-2.56.333-2.559.394.007.335.153.509.476.57.505.094.801.436.933 1.078.164.795 1.328 10.2 1.328 10.726 0 .38-.054.496-.362.787-.2.188-.428.342-.507.342-.094 0-.145.108-.145.304 0 .272.033.304.31.304.17 0 .638-.046 1.04-.103m16.573-6.794c-.601-.04-1.115-.094-1.142-.121s.106-.433.296-.902c1.602-3.964 2.121-5.223 2.18-5.287.038-.04.13.188.203.507.192.839 1.331 5.518 1.393 5.728.048.16-.036.176-.892.162a50 50 0 0 1-2.038-.087m-15.53-.886a20 20 0 0 1-.157-1.141c-.055-.474-.17-1.433-.257-2.13-.086-.697-.185-1.545-.219-1.884l-.061-.617.717-.119c2.171-.358 3.279.009 3.893 1.291.292.61.321.762.328 1.684.006.937-.016 1.055-.289 1.547-.502.906-1.101 1.24-2.696 1.502-1.17.193-1.192.19-1.26-.133" style="display:inline;fill:#2b325a" transform="translate(-.557 -6.781)scale(.16692)"/><path d="M103.823 207.816c-.307-.103-1.676-.771-3.043-1.486a3550 3550 0 0 0-4.817-2.514 699 699 0 0 1-4.033-2.117 624 624 0 0 0-4.36-2.282 651 651 0 0 1-5.501-2.877c-.67-.35-1.537-.808-1.927-1.017-.39-.21-1.782-.939-3.093-1.621-4.136-2.154-6.65-3.466-9.888-5.164a4071 4071 0 0 0-9.421-4.926c-.83-.432-1.68-.939-1.886-1.125-.73-.66-1.069-2.653-.663-3.894.1-.307.656-1.551 1.234-2.765s1.05-2.226 1.05-2.247.451-.99 1.002-2.153c1.436-3.034 1.94-4.11 1.94-4.148 0-.018.256-.572.57-1.231.651-1.37 2.067-4.392 4.647-9.92.99-2.119 2.212-4.72 2.717-5.78s1.168-2.474 1.474-3.144.847-1.827 1.203-2.574c.355-.746.646-1.37.646-1.385s.32-.698.71-1.517c.39-.82.71-1.503.71-1.518s.268-.593.595-1.283 1.246-2.648 2.042-4.35c.796-1.7 2.034-4.338 2.752-5.86.717-1.523 1.304-2.79 1.304-2.816 0-.044.901-1.956 2.549-5.408a53 53 0 0 0 .696-1.49c0-.017.188-.433.418-.924s.544-1.168.698-1.502.519-1.11.81-1.724.816-1.732 1.167-2.485c.35-.753 1.16-2.487 1.8-3.854a12963 12963 0 0 0 5.602-11.967l1.067-2.282a421 421 0 0 1 1.763-3.74c.369-.774.67-1.422.67-1.439s.366-.792.812-1.723.811-1.706.811-1.721.735-1.596 1.632-3.512c.898-1.915 1.747-3.768 1.887-4.117.604-1.5 2.28-2.205 3.977-1.673.953.299 1.424.928 2.45 3.27.257.586.618 1.362.802 1.725.185.362.575 1.184.866 1.825a464 464 0 0 0 1.72 3.702 673 673 0 0 1 1.446 3.093c.14.307.45.969.686 1.47.826 1.75 1.392 2.952 2.102 4.463.393.837 1.092 2.32 1.554 3.296s1.1 2.345 1.418 3.042c.319.698.934 2.021 1.367 2.941l1.55 3.296c.418.893 1.04 2.21 1.38 2.928s.619 1.318.619 1.333.233.522.519 1.128c.285.606.814 1.74 1.176 2.522a872 872 0 0 0 3.073 6.541c.776 1.637 1.53 3.251 5.858 12.526 1.17 2.51 2.312 4.95 2.536 5.425.932 1.97 2.808 5.979 3.084 6.592.164.362.657 1.412 1.095 2.332.755 1.589 2.412 5.127 4.818 10.294.597 1.283 1.42 3.04 1.827 3.904.408.865 1.38 2.942 2.16 4.615s2.064 4.411 2.854 6.085c.79 1.673 1.53 3.316 1.643 3.65.447 1.309.424 2.388-.073 3.495-.333.743-.307.727-4.253 2.768-1.45.75-4.576 2.38-6.947 3.622-2.37 1.242-5.291 2.773-6.49 3.4-1.2.628-3.002 1.574-4.006 2.101-1.004.528-2.488 1.304-3.296 1.726-.81.421-2.452 1.28-3.651 1.907l-4.361 2.28c-2.732 1.425-6.07 3.177-9.026 4.736-1.255.662-3.24 1.688-4.412 2.282l-2.13 1.078-.862.034c-.638.025-1.007-.015-1.42-.152m1.734-2.065c.19-.066 1.257-.606 2.373-1.2 1.116-.595 3.1-1.642 4.412-2.326 1.31-.685 2.84-1.486 3.397-1.78.558-.294 2.04-1.07 3.296-1.726a7846 7846 0 0 0 8.772-4.585c1.283-.67 4.227-2.212 6.542-3.426 9.15-4.8 12.555-6.581 15.263-7.986 1.543-.8 2.38-1.298 2.713-1.612.452-.426.481-.485.481-.972 0-.361-.102-.756-.34-1.311-.39-.91-3.262-7.084-6.15-13.218-.382-.809-1.012-2.155-1.402-2.991s-1.6-3.421-2.691-5.743-2.095-4.466-2.23-4.766c-.137-.3-.669-1.436-1.183-2.523a493 493 0 0 1-1.52-3.246c-.322-.697-.96-2.066-1.42-3.042s-1.098-2.345-1.418-3.043c-.321-.697-1.163-2.5-1.872-4.006a527 527 0 0 1-1.447-3.093c-.088-.195-.58-1.245-1.095-2.332-.514-1.088-1.585-3.37-2.38-5.071a607 607 0 0 0-2.004-4.26 125 125 0 0 1-1.042-2.23 254 254 0 0 0-1.291-2.79c-.446-.948-1.29-2.75-1.877-4.006a987 987 0 0 0-2.765-5.882c-.824-1.74-5.2-11.096-6.546-13.995-.375-.809-1.102-2.36-1.614-3.448a431 431 0 0 1-1.696-3.651c-1.669-3.65-3.04-6.343-3.373-6.623-.178-.15-.394-.273-.479-.273-.387 0-.905.882-2.445 4.158-.249.53-.657 1.397-.908 1.927-.25.53-.673 1.442-.94 2.028s-.905 1.955-1.418 3.042c-.512 1.088-1.892 4.032-3.067 6.542l-2.943 6.287c-.445.949-1.073 2.295-1.396 2.992s-.824 1.77-1.115 2.384c-.57 1.201-1.371 2.913-3.087 6.592-.599 1.282-1.477 3.154-1.951 4.158a806 806 0 0 0-2.923 6.237c-.374.808-1.013 2.178-1.42 3.042a905 905 0 0 0-2.66 5.68c-.14.306-.609 1.31-1.043 2.23s-1.267 2.7-1.853 3.956a10369 10369 0 0 1-9.398 20.08c-.459.976-1.132 2.414-1.496 3.195-.363.78-1.018 2.172-1.454 3.093-.85 1.796-3.956 8.45-5.302 11.358-.691 1.496-.827 1.876-.862 2.416l-.042.64.496.475c.34.326.99.728 2.066 1.276.864.441 2.278 1.176 3.142 1.634.865.458 2.599 1.37 3.854 2.027l4.36 2.282 4.463 2.333c1.31.684 3.273 1.711 4.36 2.281l4.21 2.206c3.905 2.045 8.282 4.342 9.33 4.895.558.294 2.2 1.15 3.65 1.902 1.451.752 3.482 1.815 4.514 2.362s2.122 1.123 2.423 1.28c.597.313.915.35 1.44.166" style="display:inline;fill:#13080f" transform="translate(-.557 -6.781)scale(.16692)"/></g></svg>